<mxGraphModel dx="0" dy="0" grid="1" gridSize="10" guides="1" tooltips="1" connect="1" arrows="1" fold="1" page="0" pageScale="1" background="none" math="0" shadow="0">
  <root>
    <mxCell id="0" />
    <mxCell id="1" parent="0" />
    <mxCell id="node9" parent="1" vertex="1" value="&lt;p style=&quot;margin:0px;margin-top:4px;text-align:center;&quot;&gt;&lt;b&gt;AlreadyUsedEmail&lt;/b&gt;&lt;/p&gt;&lt;hr size=&quot;1&quot;/&gt;" style="verticalAlign=top;align=left;overflow=fill;fontSize=14;fontFamily=Helvetica;html=1;rounded=0;shadow=0;comic=0;labelBackgroundColor=none;strokeWidth=1;">
      <mxGeometry x="472" y="1638" width="234" height="38" as="geometry" />
    </mxCell>
    <mxCell id="node56" parent="1" vertex="1" value="&lt;p style=&quot;margin:0px;margin-top:4px;text-align:center;&quot;&gt;&lt;b&gt;AlreadyUsedEmail&lt;/b&gt;&lt;/p&gt;&lt;hr size=&quot;1&quot;/&gt;" style="verticalAlign=top;align=left;overflow=fill;fontSize=14;fontFamily=Helvetica;html=1;rounded=0;shadow=0;comic=0;labelBackgroundColor=none;strokeWidth=1;">
      <mxGeometry x="-208" y="2018" width="234" height="38" as="geometry" />
    </mxCell>
    <mxCell id="node20" parent="1" vertex="1" value="&lt;p style=&quot;margin:0px;margin-top:4px;text-align:center;&quot;&gt;&lt;b&gt;AlreadyUsedEmailException&lt;/b&gt;&lt;/p&gt;&lt;hr size=&quot;1&quot;/&gt;" style="verticalAlign=top;align=left;overflow=fill;fontSize=14;fontFamily=Helvetica;html=1;rounded=0;shadow=0;comic=0;labelBackgroundColor=none;strokeWidth=1;">
      <mxGeometry x="3325" y="918" width="328" height="38" as="geometry" />
    </mxCell>
    <mxCell id="node66" parent="1" vertex="1" value="&lt;p style=&quot;margin:0px;margin-top:4px;text-align:center;&quot;&gt;&lt;b&gt;AlreadyUsedEmailExceptionHandler&lt;/b&gt;&lt;/p&gt;&lt;hr size=&quot;1&quot;/&gt;&lt;p style=&quot;margin:0 0 0 4px;line-height:1.6;&quot;&gt;+ handleAlreadyUsedEmailException(AlreadyUsedEmailException): ResponseEntity&amp;lt;AlreadyUsedEmail&amp;gt;&lt;/p&gt;" style="verticalAlign=top;align=left;overflow=fill;fontSize=14;fontFamily=Helvetica;html=1;rounded=0;shadow=0;comic=0;labelBackgroundColor=none;strokeWidth=1;">
      <mxGeometry x="-70" y="2377" width="838" height="82" as="geometry" />
    </mxCell>
    <mxCell id="node7" parent="1" vertex="1" value="&lt;p style=&quot;margin:0px;margin-top:4px;text-align:center;&quot;&gt;&lt;b&gt;CreateNews&lt;/b&gt;&lt;/p&gt;&lt;hr size=&quot;1&quot;/&gt;&lt;p style=&quot;margin:0 0 0 4px;line-height:1.6;&quot;&gt;- title: String&lt;/p&gt;&lt;hr size=&quot;1&quot;/&gt;&lt;p style=&quot;margin:0 0 0 4px;line-height:1.6;&quot;&gt; title: String&lt;/p&gt;" style="verticalAlign=top;align=left;overflow=fill;fontSize=14;fontFamily=Helvetica;html=1;rounded=0;shadow=0;comic=0;labelBackgroundColor=none;strokeWidth=1;">
      <mxGeometry x="398" y="3642" width="182" height="116" as="geometry" />
    </mxCell>
    <mxCell id="node59" parent="1" vertex="1" value="&lt;p style=&quot;margin:0px;margin-top:4px;text-align:center;&quot;&gt;&lt;b&gt;CreateNewsWithContent&lt;/b&gt;&lt;/p&gt;&lt;hr size=&quot;1&quot;/&gt;&lt;p style=&quot;margin:0 0 0 4px;line-height:1.6;&quot;&gt;- content: String&lt;/p&gt;&lt;hr size=&quot;1&quot;/&gt;&lt;p style=&quot;margin:0 0 0 4px;line-height:1.6;&quot;&gt; content: String&lt;/p&gt;" style="verticalAlign=top;align=left;overflow=fill;fontSize=14;fontFamily=Helvetica;html=1;rounded=0;shadow=0;comic=0;labelBackgroundColor=none;strokeWidth=1;">
      <mxGeometry x="378" y="4182" width="302" height="116" as="geometry" />
    </mxCell>
    <mxCell id="node68" parent="1" vertex="1" value="&lt;p style=&quot;margin:0px;margin-top:4px;text-align:center;&quot;&gt;&lt;b&gt;CreateNewsWithFile&lt;/b&gt;&lt;/p&gt;&lt;hr size=&quot;1&quot;/&gt;" style="verticalAlign=top;align=left;overflow=fill;fontSize=14;fontFamily=Helvetica;html=1;rounded=0;shadow=0;comic=0;labelBackgroundColor=none;strokeWidth=1;">
      <mxGeometry x="161" y="4558" width="257" height="38" as="geometry" />
    </mxCell>
    <mxCell id="node64" parent="1" vertex="1" value="&lt;p style=&quot;margin:0px;margin-top:4px;text-align:center;&quot;&gt;&lt;b&gt;CreateNewsWithURL&lt;/b&gt;&lt;/p&gt;&lt;hr size=&quot;1&quot;/&gt;&lt;p style=&quot;margin:0 0 0 4px;line-height:1.6;&quot;&gt;- url: String&lt;/p&gt;&lt;hr size=&quot;1&quot;/&gt;&lt;p style=&quot;margin:0 0 0 4px;line-height:1.6;&quot;&gt; url: String&lt;/p&gt;" style="verticalAlign=top;align=left;overflow=fill;fontSize=14;fontFamily=Helvetica;html=1;rounded=0;shadow=0;comic=0;labelBackgroundColor=none;strokeWidth=1;">
      <mxGeometry x="737" y="4182" width="264" height="116" as="geometry" />
    </mxCell>
    <mxCell id="node47" parent="1" vertex="1" value="&lt;p style=&quot;margin:0px;margin-top:4px;text-align:center;&quot;&gt;&lt;b&gt;CreateUserRequest&lt;/b&gt;&lt;/p&gt;&lt;hr size=&quot;1&quot;/&gt;&lt;p style=&quot;margin:0 0 0 4px;line-height:1.6;&quot;&gt;- email: String&lt;br/&gt;- name: String&lt;br/&gt;- role: Role&lt;br/&gt;- password: String&lt;/p&gt;&lt;hr size=&quot;1&quot;/&gt;&lt;p style=&quot;margin:0 0 0 4px;line-height:1.6;&quot;&gt; name: String&lt;br/&gt; password: String&lt;br/&gt; role: Role&lt;br/&gt; email: String&lt;/p&gt;" style="verticalAlign=top;align=left;overflow=fill;fontSize=14;fontFamily=Helvetica;html=1;rounded=0;shadow=0;comic=0;labelBackgroundColor=none;strokeWidth=1;">
      <mxGeometry x="664" y="792" width="251" height="287" as="geometry" />
    </mxCell>
    <mxCell id="node1" parent="1" vertex="1" value="&lt;p style=&quot;margin:0px;margin-top:4px;text-align:center;&quot;&gt;&lt;b&gt;Entity&lt;/b&gt;&lt;/p&gt;&lt;hr size=&quot;1&quot;/&gt;&lt;p style=&quot;margin:0 0 0 4px;line-height:1.6;&quot;&gt;- name: String&lt;br/&gt;- mentionCount: int&lt;br/&gt;- positions: List&amp;lt;Integer&amp;gt;&lt;br/&gt;- type: String&lt;/p&gt;&lt;hr size=&quot;1&quot;/&gt;&lt;p style=&quot;margin:0 0 0 4px;line-height:1.6;&quot;&gt;+ addPosition(int): void&lt;/p&gt;&lt;hr size=&quot;1&quot;/&gt;&lt;p style=&quot;margin:0 0 0 4px;line-height:1.6;&quot;&gt; name: String&lt;br/&gt; positions: List&amp;lt;Integer&amp;gt;&lt;br/&gt; type: String&lt;br/&gt; mentionCount: int&lt;/p&gt;" style="verticalAlign=top;align=left;overflow=fill;fontSize=14;fontFamily=Helvetica;html=1;rounded=0;shadow=0;comic=0;labelBackgroundColor=none;strokeWidth=1;">
      <mxGeometry x="6569" y="196" width="240" height="318" as="geometry" />
    </mxCell>
    <mxCell id="node67" parent="1" vertex="1" value="&lt;p style=&quot;margin:0px;margin-top:4px;text-align:center;&quot;&gt;&lt;b&gt;EntityNotFound&lt;/b&gt;&lt;/p&gt;&lt;hr size=&quot;1&quot;/&gt;" style="verticalAlign=top;align=left;overflow=fill;fontSize=14;fontFamily=Helvetica;html=1;rounded=0;shadow=0;comic=0;labelBackgroundColor=none;strokeWidth=1;">
      <mxGeometry x="4984" y="1638" width="211" height="38" as="geometry" />
    </mxCell>
    <mxCell id="node17" parent="1" vertex="1" value="&lt;p style=&quot;margin:0px;margin-top:4px;text-align:center;&quot;&gt;&lt;b&gt;EntityNotFoundException&lt;/b&gt;&lt;/p&gt;&lt;hr size=&quot;1&quot;/&gt;" style="verticalAlign=top;align=left;overflow=fill;fontSize=14;fontFamily=Helvetica;html=1;rounded=0;shadow=0;comic=0;labelBackgroundColor=none;strokeWidth=1;">
      <mxGeometry x="3157" y="338" width="305" height="38" as="geometry" />
    </mxCell>
    <mxCell id="node77" parent="1" vertex="1" value="&lt;p style=&quot;margin:0px;margin-top:4px;text-align:center;&quot;&gt;&lt;b&gt;EntityNotFoundExceptionHandler&lt;/b&gt;&lt;/p&gt;&lt;hr size=&quot;1&quot;/&gt;&lt;p style=&quot;margin:0 0 0 4px;line-height:1.6;&quot;&gt;+ handleEntityNotFoundException(EntityNotFoundException): ResponseEntity&amp;lt;EntityNotFound&amp;gt;&lt;/p&gt;" style="verticalAlign=top;align=left;overflow=fill;fontSize=14;fontFamily=Helvetica;html=1;rounded=0;shadow=0;comic=0;labelBackgroundColor=none;strokeWidth=1;">
      <mxGeometry x="4939" y="2377" width="781" height="82" as="geometry" />
    </mxCell>
    <mxCell id="node31" parent="1" vertex="1" value="&lt;p style=&quot;margin:0px;margin-top:4px;text-align:center;&quot;&gt;&lt;b&gt;Failure&lt;/b&gt;&lt;/p&gt;&lt;hr size=&quot;1&quot;/&gt;" style="verticalAlign=top;align=left;overflow=fill;fontSize=14;fontFamily=Helvetica;html=1;rounded=0;shadow=0;comic=0;labelBackgroundColor=none;strokeWidth=1;">
      <mxGeometry x="546" y="3318" width="127" height="38" as="geometry" />
    </mxCell>
    <mxCell id="node39" parent="1" vertex="1" value="&lt;p style=&quot;margin:0px;margin-top:4px;text-align:center;&quot;&gt;&lt;b&gt;Failure&lt;/b&gt;&lt;/p&gt;&lt;hr size=&quot;1&quot;/&gt;" style="verticalAlign=top;align=left;overflow=fill;fontSize=14;fontFamily=Helvetica;html=1;rounded=0;shadow=0;comic=0;labelBackgroundColor=none;strokeWidth=1;">
      <mxGeometry x="4246" y="3678" width="127" height="38" as="geometry" />
    </mxCell>
    <mxCell id="node42" parent="1" vertex="1" value="&lt;p style=&quot;margin:0px;margin-top:4px;text-align:center;&quot;&gt;&lt;b&gt;FileIssueException&lt;/b&gt;&lt;/p&gt;&lt;hr size=&quot;1&quot;/&gt;" style="verticalAlign=top;align=left;overflow=fill;fontSize=14;fontFamily=Helvetica;html=1;rounded=0;shadow=0;comic=0;labelBackgroundColor=none;strokeWidth=1;">
      <mxGeometry x="849" y="2838" width="240" height="38" as="geometry" />
    </mxCell>
    <mxCell id="node33" parent="1" vertex="1" value="&lt;p style=&quot;margin:0px;margin-top:4px;text-align:center;&quot;&gt;&lt;b&gt;FileIssueExceptionHandler&lt;/b&gt;&lt;/p&gt;&lt;hr size=&quot;1&quot;/&gt;&lt;p style=&quot;margin:0 0 0 4px;line-height:1.6;&quot;&gt;+ handleFileIssueException(FileIssueException): ResponseEntity&amp;lt;InvalidFile&amp;gt;&lt;/p&gt;" style="verticalAlign=top;align=left;overflow=fill;fontSize=14;fontFamily=Helvetica;html=1;rounded=0;shadow=0;comic=0;labelBackgroundColor=none;strokeWidth=1;">
      <mxGeometry x="4576" y="4537" width="627" height="82" as="geometry" />
    </mxCell>
    <mxCell id="node51" parent="1" vertex="1" value="&lt;p style=&quot;margin:0px;margin-top:4px;text-align:center;&quot;&gt;&lt;b&gt;GetUserResponse&lt;/b&gt;&lt;/p&gt;&lt;hr size=&quot;1&quot;/&gt;&lt;p style=&quot;margin:0 0 0 4px;line-height:1.6;&quot;&gt;- message: String&lt;/p&gt;&lt;hr size=&quot;1&quot;/&gt;&lt;p style=&quot;margin:0 0 0 4px;line-height:1.6;&quot;&gt; message: String&lt;/p&gt;" style="verticalAlign=top;align=left;overflow=fill;fontSize=14;fontFamily=Helvetica;html=1;rounded=0;shadow=0;comic=0;labelBackgroundColor=none;strokeWidth=1;">
      <mxGeometry x="1571" y="882" width="236" height="116" as="geometry" />
    </mxCell>
    <mxCell id="node52" parent="1" vertex="1" value="&lt;p style=&quot;margin:0px;margin-top:4px;text-align:center;&quot;&gt;&lt;b&gt;GraphNewsApplication&lt;/b&gt;&lt;/p&gt;&lt;hr size=&quot;1&quot;/&gt;&lt;p style=&quot;margin:0 0 0 4px;line-height:1.6;&quot;&gt;+ main(String[]): void&lt;/p&gt;" style="verticalAlign=top;align=left;overflow=fill;fontSize=14;fontFamily=Helvetica;html=1;rounded=0;shadow=0;comic=0;labelBackgroundColor=none;strokeWidth=1;">
      <mxGeometry x="-211" y="4537" width="281" height="82" as="geometry" />
    </mxCell>
    <mxCell id="node37" parent="1" vertex="1" value="&lt;p style=&quot;margin:0px;margin-top:4px;text-align:center;&quot;&gt;&lt;b&gt;GraphNewsApplicationTests&lt;/b&gt;&lt;/p&gt;&lt;hr size=&quot;1&quot;/&gt;&lt;p style=&quot;margin:0 0 0 4px;line-height:1.6;&quot;&gt;~ contextLoads(): void&lt;/p&gt;" style="verticalAlign=top;align=left;overflow=fill;fontSize=14;fontFamily=Helvetica;html=1;rounded=0;shadow=0;comic=0;labelBackgroundColor=none;strokeWidth=1;">
      <mxGeometry x="903" y="4537" width="333" height="82" as="geometry" />
    </mxCell>
    <mxCell id="node57" parent="1" vertex="1" value="&lt;p style=&quot;margin:0px;margin-top:4px;text-align:center;&quot;&gt;&lt;b&gt;HTMLInvalidFormatException&lt;/b&gt;&lt;/p&gt;&lt;hr size=&quot;1&quot;/&gt;" style="verticalAlign=top;align=left;overflow=fill;fontSize=14;fontFamily=Helvetica;html=1;rounded=0;shadow=0;comic=0;labelBackgroundColor=none;strokeWidth=1;">
      <mxGeometry x="2079" y="1638" width="341" height="38" as="geometry" />
    </mxCell>
    <mxCell id="node30" parent="1" vertex="1" value="&lt;p style=&quot;margin:0px;margin-top:4px;text-align:center;&quot;&gt;&lt;b&gt;HTMLInvalidFormatExceptionHandler&lt;/b&gt;&lt;/p&gt;&lt;hr size=&quot;1&quot;/&gt;&lt;p style=&quot;margin:0 0 0 4px;line-height:1.6;&quot;&gt;+ handleHTMLInvalidFormatException(HTMLInvalidFormatException): ResponseEntity&amp;lt;InvalidHTML&amp;gt;&lt;/p&gt;" style="verticalAlign=top;align=left;overflow=fill;fontSize=14;fontFamily=Helvetica;html=1;rounded=0;shadow=0;comic=0;labelBackgroundColor=none;strokeWidth=1;">
      <mxGeometry x="4042" y="4197" width="814" height="82" as="geometry" />
    </mxCell>
    <mxCell id="node36" parent="1" vertex="1" value="&lt;p style=&quot;margin:0px;margin-top:4px;text-align:center;&quot;&gt;&lt;b&gt;HTMLSanitizer&lt;/b&gt;&lt;/p&gt;&lt;hr size=&quot;1&quot;/&gt;&lt;p style=&quot;margin:0 0 0 4px;line-height:1.6;&quot;&gt;- removeInnerTags(String): String&lt;br/&gt;- extractTitle(String): String&lt;br/&gt;+ sanitize(String): NewsDTO&lt;br/&gt;- extractContent(String): String&lt;/p&gt;" style="verticalAlign=top;align=left;overflow=fill;fontSize=14;fontFamily=Helvetica;html=1;rounded=0;shadow=0;comic=0;labelBackgroundColor=none;strokeWidth=1;">
      <mxGeometry x="2298" y="2772" width="302" height="166" as="geometry" />
    </mxCell>
    <mxCell id="node40" parent="1" vertex="1" value="&lt;p style=&quot;margin:0px;margin-top:4px;text-align:center;&quot;&gt;&lt;b&gt;IncorrectCredentialsException&lt;/b&gt;&lt;/p&gt;&lt;hr size=&quot;1&quot;/&gt;" style="verticalAlign=top;align=left;overflow=fill;fontSize=14;fontFamily=Helvetica;html=1;rounded=0;shadow=0;comic=0;labelBackgroundColor=none;strokeWidth=1;">
      <mxGeometry x="3515" y="338" width="349" height="38" as="geometry" />
    </mxCell>
    <mxCell id="node5" parent="1" vertex="1" value="&lt;p style=&quot;margin:0px;margin-top:4px;text-align:center;&quot;&gt;&lt;b&gt;IncorrectCredentialsExceptionHandler&lt;/b&gt;&lt;/p&gt;&lt;hr size=&quot;1&quot;/&gt;&lt;p style=&quot;margin:0 0 0 4px;line-height:1.6;&quot;&gt;+ handleIncorrectCredentialsException(IncorrectCredentialsException): ResponseEntity&amp;lt;InvalidCredentials&amp;gt;&lt;/p&gt;" style="verticalAlign=top;align=left;overflow=fill;fontSize=14;fontFamily=Helvetica;html=1;rounded=0;shadow=0;comic=0;labelBackgroundColor=none;strokeWidth=1;">
      <mxGeometry x="4515" y="2817" width="788" height="82" as="geometry" />
    </mxCell>
    <mxCell id="node72" parent="1" vertex="1" value="&lt;p style=&quot;margin:0px;margin-top:4px;text-align:center;&quot;&gt;&lt;b&gt;InvalidCredentials&lt;/b&gt;&lt;/p&gt;&lt;hr size=&quot;1&quot;/&gt;" style="verticalAlign=top;align=left;overflow=fill;fontSize=14;fontFamily=Helvetica;html=1;rounded=0;shadow=0;comic=0;labelBackgroundColor=none;strokeWidth=1;">
      <mxGeometry x="4793" y="2018" width="232" height="38" as="geometry" />
    </mxCell>
    <mxCell id="node22" parent="1" vertex="1" value="&lt;p style=&quot;margin:0px;margin-top:4px;text-align:center;&quot;&gt;&lt;b&gt;InvalidFile&lt;/b&gt;&lt;/p&gt;&lt;hr size=&quot;1&quot;/&gt;" style="verticalAlign=top;align=left;overflow=fill;fontSize=14;fontFamily=Helvetica;html=1;rounded=0;shadow=0;comic=0;labelBackgroundColor=none;strokeWidth=1;">
      <mxGeometry x="4810" y="3678" width="158" height="38" as="geometry" />
    </mxCell>
    <mxCell id="node21" parent="1" vertex="1" value="&lt;p style=&quot;margin:0px;margin-top:4px;text-align:center;&quot;&gt;&lt;b&gt;InvalidHTML&lt;/b&gt;&lt;/p&gt;&lt;hr size=&quot;1&quot;/&gt;" style="verticalAlign=top;align=left;overflow=fill;fontSize=14;fontFamily=Helvetica;html=1;rounded=0;shadow=0;comic=0;labelBackgroundColor=none;strokeWidth=1;">
      <mxGeometry x="4359" y="3318" width="181" height="38" as="geometry" />
    </mxCell>
    <mxCell id="node53" parent="1" vertex="1" value="&lt;p style=&quot;margin:0px;margin-top:4px;text-align:center;&quot;&gt;&lt;b&gt;JWTAuthenticationFilter&lt;/b&gt;&lt;/p&gt;&lt;hr size=&quot;1&quot;/&gt;&lt;p style=&quot;margin:0 0 0 4px;line-height:1.6;&quot;&gt;# doFilterInternal(HttpServletRequest, HttpServletResponse, FilterChain): void&lt;/p&gt;" style="verticalAlign=top;align=left;overflow=fill;fontSize=14;fontFamily=Helvetica;html=1;rounded=0;shadow=0;comic=0;labelBackgroundColor=none;strokeWidth=1;">
      <mxGeometry x="5776" y="2817" width="546" height="82" as="geometry" />
    </mxCell>
    <mxCell id="node4" parent="1" vertex="1" value="&lt;p style=&quot;margin:0px;margin-top:4px;text-align:center;&quot;&gt;&lt;b&gt;JwtUtil&lt;/b&gt;&lt;/p&gt;&lt;hr size=&quot;1&quot;/&gt;&lt;p style=&quot;margin:0 0 0 4px;line-height:1.6;&quot;&gt;+ isTokenValid(String, String): boolean&lt;br/&gt;- extractAllClaims(String): Claims&lt;br/&gt;+ isTokenExpired(String): boolean&lt;br/&gt;+ extractClaim(String, Function&amp;lt;Claims, T&amp;gt;): T&lt;br/&gt;- extractExpiration(String): Date&lt;br/&gt;+ generateToken(Map&amp;lt;String, Object&amp;gt;, String): String&lt;/p&gt;&lt;hr size=&quot;1&quot;/&gt;&lt;p style=&quot;margin:0 0 0 4px;line-height:1.6;&quot;&gt; signInKey: SecretKey&lt;/p&gt;" style="verticalAlign=top;align=left;overflow=fill;fontSize=14;fontFamily=Helvetica;html=1;rounded=0;shadow=0;comic=0;labelBackgroundColor=none;strokeWidth=1;">
      <mxGeometry x="2481" y="1907" width="457" height="257" as="geometry" />
    </mxCell>
    <mxCell id="node55" parent="1" vertex="1" value="&lt;p style=&quot;margin:0px;margin-top:4px;text-align:center;&quot;&gt;&lt;b&gt;ListUsersResponse&lt;/b&gt;&lt;/p&gt;&lt;hr size=&quot;1&quot;/&gt;&lt;p style=&quot;margin:0 0 0 4px;line-height:1.6;&quot;&gt;- message: String&lt;/p&gt;&lt;hr size=&quot;1&quot;/&gt;&lt;p style=&quot;margin:0 0 0 4px;line-height:1.6;&quot;&gt; message: String&lt;/p&gt;" style="verticalAlign=top;align=left;overflow=fill;fontSize=14;fontFamily=Helvetica;html=1;rounded=0;shadow=0;comic=0;labelBackgroundColor=none;strokeWidth=1;">
      <mxGeometry x="887" y="302" width="245" height="116" as="geometry" />
    </mxCell>
    <mxCell id="node46" parent="1" vertex="1" value="&lt;p style=&quot;margin:0px;margin-top:4px;text-align:center;&quot;&gt;&lt;b&gt;LoginRequest&lt;/b&gt;&lt;/p&gt;&lt;hr size=&quot;1&quot;/&gt;&lt;p style=&quot;margin:0 0 0 4px;line-height:1.6;&quot;&gt;- email: String&lt;br/&gt;- password: String&lt;/p&gt;&lt;hr size=&quot;1&quot;/&gt;&lt;p style=&quot;margin:0 0 0 4px;line-height:1.6;&quot;&gt; email: String&lt;br/&gt; password: String&lt;/p&gt;" style="verticalAlign=top;align=left;overflow=fill;fontSize=14;fontFamily=Helvetica;html=1;rounded=0;shadow=0;comic=0;labelBackgroundColor=none;strokeWidth=1;">
      <mxGeometry x="3912" y="4492" width="195" height="167" as="geometry" />
    </mxCell>
    <mxCell id="node44" parent="1" vertex="1" value="&lt;p style=&quot;margin:0px;margin-top:4px;text-align:center;&quot;&gt;&lt;b&gt;LoginResponse&lt;/b&gt;&lt;/p&gt;&lt;hr size=&quot;1&quot;/&gt;&lt;p style=&quot;margin:0 0 0 4px;line-height:1.6;&quot;&gt;- message: String&lt;/p&gt;&lt;hr size=&quot;1&quot;/&gt;&lt;p style=&quot;margin:0 0 0 4px;line-height:1.6;&quot;&gt; message: String&lt;/p&gt;" style="verticalAlign=top;align=left;overflow=fill;fontSize=14;fontFamily=Helvetica;html=1;rounded=0;shadow=0;comic=0;labelBackgroundColor=none;strokeWidth=1;">
      <mxGeometry x="4804" y="302" width="210" height="116" as="geometry" />
    </mxCell>
    <mxCell id="node71" parent="1" vertex="1" value="&lt;p style=&quot;margin:0px;margin-top:4px;text-align:center;&quot;&gt;&lt;b&gt;Neo4jConfig&lt;/b&gt;&lt;/p&gt;&lt;hr size=&quot;1&quot;/&gt;&lt;p style=&quot;margin:0 0 0 4px;line-height:1.6;&quot;&gt;+ driver(): Driver&lt;/p&gt;" style="verticalAlign=top;align=left;overflow=fill;fontSize=14;fontFamily=Helvetica;html=1;rounded=0;shadow=0;comic=0;labelBackgroundColor=none;strokeWidth=1;">
      <mxGeometry x="617" y="4537" width="185" height="82" as="geometry" />
    </mxCell>
    <mxCell id="node24" parent="1" vertex="1" value="&lt;p style=&quot;margin:0px;margin-top:4px;text-align:center;&quot;&gt;&lt;b&gt;Neo4jGraphService&lt;/b&gt;&lt;/p&gt;&lt;hr size=&quot;1&quot;/&gt;&lt;p style=&quot;margin:0 0 0 4px;line-height:1.6;&quot;&gt;- connectEntityToNews(TransactionContext, String, String, int): void&lt;br/&gt;- createNewsNode(TransactionContext, String, NewsDTO, NewsProcessingResult): String&lt;br/&gt;+ storeProcessedNews(NewsProcessingResult, NewsDTO): void&lt;br/&gt;- createEntityNode(TransactionContext, Entity): String&lt;br/&gt;- createRelationship(TransactionContext, String, String, Relationship): void&lt;/p&gt;&lt;hr size=&quot;1&quot;/&gt;&lt;p style=&quot;margin:0 0 0 4px;line-height:1.6;&quot;&gt; graphStatistics: Map&amp;lt;String, Object&amp;gt;&lt;/p&gt;" style="verticalAlign=top;align=left;overflow=fill;fontSize=14;fontFamily=Helvetica;html=1;rounded=0;shadow=0;comic=0;labelBackgroundColor=none;strokeWidth=1;">
      <mxGeometry x="2469" y="2302" width="600" height="227" as="geometry" />
    </mxCell>
    <mxCell id="node69" parent="1" vertex="1" value="&lt;p style=&quot;margin:0px;margin-top:4px;text-align:center;&quot;&gt;&lt;b&gt;News&lt;/b&gt;&lt;/p&gt;&lt;hr size=&quot;1&quot;/&gt;&lt;p style=&quot;margin:0 0 0 4px;line-height:1.6;&quot;&gt;- createdAt: LocalDateTime&lt;br/&gt;- title: String&lt;br/&gt;- author: User&lt;br/&gt;- id: Long&lt;br/&gt;- content: String&lt;/p&gt;&lt;hr size=&quot;1&quot;/&gt;&lt;p style=&quot;margin:0 0 0 4px;line-height:1.6;&quot;&gt; content: String&lt;br/&gt; createdAt: LocalDateTime&lt;br/&gt; title: String&lt;br/&gt; id: Long&lt;br/&gt; author: User&lt;/p&gt;" style="verticalAlign=top;align=left;overflow=fill;fontSize=14;fontFamily=Helvetica;html=1;rounded=0;shadow=0;comic=0;labelBackgroundColor=none;strokeWidth=1;">
      <mxGeometry x="4041" y="1482" width="256" height="347" as="geometry" />
    </mxCell>
    <mxCell id="node19" parent="1" vertex="1" value="&lt;p style=&quot;margin:0px;margin-top:4px;text-align:center;&quot;&gt;&lt;b&gt;NewsController&lt;/b&gt;&lt;/p&gt;&lt;hr size=&quot;1&quot;/&gt;&lt;p style=&quot;margin:0 0 0 4px;line-height:1.6;&quot;&gt;+ searchNews(String, int, int): ResponseEntity&amp;lt;?&amp;gt;&lt;br/&gt;+ getNewsById(Long): ResponseEntity&amp;lt;?&amp;gt;&lt;br/&gt;+ deleteNews(Long, String): ResponseEntity&amp;lt;?&amp;gt;&lt;br/&gt;+ getNewsByUser(Long): ResponseEntity&amp;lt;?&amp;gt;&lt;br/&gt;+ createNewsFromFile(MultipartFile, CreateNewsWithFile, String): ResponseEntity&amp;lt;NewsUpload&amp;gt;&lt;br/&gt;+ getNewsByUserPaged(Long, int, int): ResponseEntity&amp;lt;?&amp;gt;&lt;br/&gt;+ getAllNews(int, int, String, String): ResponseEntity&amp;lt;?&amp;gt;&lt;br/&gt;+ createNewsFromContent(CreateNewsWithContent, String): ResponseEntity&amp;lt;NewsUpload&amp;gt;&lt;br/&gt;+ getNewsByDateRange(LocalDateTime, LocalDateTime, int, int): ResponseEntity&amp;lt;?&amp;gt;&lt;br/&gt;+ createNewsFromUrl(CreateNewsWithURL, String): ResponseEntity&amp;lt;NewsUpload&amp;gt;&lt;br/&gt;+ getLatestNews(int): ResponseEntity&amp;lt;?&amp;gt;&lt;/p&gt;" style="verticalAlign=top;align=left;overflow=fill;fontSize=14;fontFamily=Helvetica;html=1;rounded=0;shadow=0;comic=0;labelBackgroundColor=none;strokeWidth=1;">
      <mxGeometry x="1503" y="4047" width="773" height="376" as="geometry" />
    </mxCell>
    <mxCell id="node58" parent="1" vertex="1" value="&lt;p style=&quot;margin:0px;margin-top:4px;text-align:center;&quot;&gt;&lt;b&gt;NewsDTO&lt;/b&gt;&lt;/p&gt;&lt;hr size=&quot;1&quot;/&gt;&lt;p style=&quot;margin:0 0 0 4px;line-height:1.6;&quot;&gt;- author: UserDTO&lt;br/&gt;- createdAt: LocalDateTime&lt;br/&gt;- content: String&lt;br/&gt;- id: Long&lt;br/&gt;- title: String&lt;/p&gt;&lt;hr size=&quot;1&quot;/&gt;&lt;p style=&quot;margin:0 0 0 4px;line-height:1.6;&quot;&gt; content: String&lt;br/&gt; createdAt: LocalDateTime&lt;br/&gt; author: UserDTO&lt;br/&gt; title: String&lt;br/&gt; id: Long&lt;/p&gt;" style="verticalAlign=top;align=left;overflow=fill;fontSize=14;fontFamily=Helvetica;html=1;rounded=0;shadow=0;comic=0;labelBackgroundColor=none;strokeWidth=1;">
      <mxGeometry x="1921" y="1862" width="256" height="347" as="geometry" />
    </mxCell>
    <mxCell id="node65" parent="1" vertex="1" value="&lt;p style=&quot;margin:0px;margin-top:4px;text-align:center;&quot;&gt;&lt;b&gt;NewsMapper&lt;/b&gt;&lt;/p&gt;&lt;hr size=&quot;1&quot;/&gt;&lt;p style=&quot;margin:0 0 0 4px;line-height:1.6;&quot;&gt;+ toDto(News): NewsDTO&lt;br/&gt;+ toDto(List&amp;lt;News&amp;gt;): List&amp;lt;NewsDTO&amp;gt;&lt;/p&gt;" style="verticalAlign=top;align=left;overflow=fill;fontSize=14;fontFamily=Helvetica;html=1;rounded=0;shadow=0;comic=0;labelBackgroundColor=none;strokeWidth=1;">
      <mxGeometry x="1697" y="2362" width="345" height="114" as="geometry" />
    </mxCell>
    <mxCell id="node34" parent="1" vertex="1" value="&lt;p style=&quot;margin:0px;margin-top:4px;text-align:center;&quot;&gt;&lt;b&gt;NewsProcessingResult&lt;/b&gt;&lt;/p&gt;&lt;hr size=&quot;1&quot;/&gt;&lt;p style=&quot;margin:0 0 0 4px;line-height:1.6;&quot;&gt;- entities: List&amp;lt;Entity&amp;gt;&lt;br/&gt;- keyPhrases: List&amp;lt;String&amp;gt;&lt;br/&gt;- relationships: List&amp;lt;Relationship&amp;gt;&lt;br/&gt;- title: String&lt;br/&gt;- text: String&lt;/p&gt;&lt;hr size=&quot;1&quot;/&gt;&lt;p style=&quot;margin:0 0 0 4px;line-height:1.6;&quot;&gt; relationships: List&amp;lt;Relationship&amp;gt;&lt;br/&gt; text: String&lt;br/&gt; keyPhrases: List&amp;lt;String&amp;gt;&lt;br/&gt; title: String&lt;br/&gt; entities: List&amp;lt;Entity&amp;gt;&lt;/p&gt;" style="verticalAlign=top;align=left;overflow=fill;fontSize=14;fontFamily=Helvetica;html=1;rounded=0;shadow=0;comic=0;labelBackgroundColor=none;strokeWidth=1;">
      <mxGeometry x="6496" y="1862" width="306" height="347" as="geometry" />
    </mxCell>
    <mxCell id="node29" parent="1" vertex="1" value="&lt;p style=&quot;margin:0px;margin-top:4px;text-align:center;&quot;&gt;&lt;i&gt;&amp;lt;&amp;lt;interface&amp;gt;&amp;gt;&lt;/i&gt;&lt;br/&gt;&lt;b&gt;NewsRepository&lt;/b&gt;&lt;/p&gt;&lt;hr size=&quot;1&quot;/&gt;&lt;p style=&quot;margin:0 0 0 4px;line-height:1.6;&quot;&gt;+ findByCreatedAtBetween(LocalDateTime, LocalDateTime): List&amp;lt;News&amp;gt;&lt;br/&gt;+ findByCreatedAtBetween(LocalDateTime, LocalDateTime, Pageable): Page&amp;lt;News&amp;gt;&lt;br/&gt;+ findByAuthor(User, Pageable): Page&amp;lt;News&amp;gt;&lt;br/&gt;+ findByAuthor(User): List&amp;lt;News&amp;gt;&lt;br/&gt;+ findAllByOrderByCreatedAtDesc(Pageable): List&amp;lt;News&amp;gt;&lt;br/&gt;+ searchByTitleOrContent(String, Pageable): Page&amp;lt;News&amp;gt;&lt;/p&gt;" style="verticalAlign=top;align=left;overflow=fill;fontSize=14;fontFamily=Helvetica;html=1;rounded=0;shadow=0;comic=0;labelBackgroundColor=none;strokeWidth=1;">
      <mxGeometry x="3713" y="2742" width="672" height="226" as="geometry" />
    </mxCell>
    <mxCell id="node23" parent="1" vertex="1" value="&lt;p style=&quot;margin:0px;margin-top:4px;text-align:center;&quot;&gt;&lt;b&gt;NewsResponse&lt;/b&gt;&lt;/p&gt;&lt;hr size=&quot;1&quot;/&gt;&lt;p style=&quot;margin:0 0 0 4px;line-height:1.6;&quot;&gt;- message: String&lt;/p&gt;&lt;hr size=&quot;1&quot;/&gt;&lt;p style=&quot;margin:0 0 0 4px;line-height:1.6;&quot;&gt; message: String&lt;/p&gt;" style="verticalAlign=top;align=left;overflow=fill;fontSize=14;fontFamily=Helvetica;html=1;rounded=0;shadow=0;comic=0;labelBackgroundColor=none;strokeWidth=1;">
      <mxGeometry x="-196" y="2802" width="211" height="116" as="geometry" />
    </mxCell>
    <mxCell id="node11" parent="1" vertex="1" value="&lt;p style=&quot;margin:0px;margin-top:4px;text-align:center;&quot;&gt;&lt;b&gt;NewsService&lt;/b&gt;&lt;/p&gt;&lt;hr size=&quot;1&quot;/&gt;&lt;p style=&quot;margin:0 0 0 4px;line-height:1.6;&quot;&gt;- validateDateRange(LocalDateTime, LocalDateTime): void&lt;br/&gt;+ deleteNews(Long, Long, String): NewsDTO&lt;br/&gt;+ getNewsById(Long): NewsDTO&lt;br/&gt;+ getNewsByAuthor(Long): List&amp;lt;NewsDTO&amp;gt;&lt;br/&gt;+ getNewsByAuthor(Long, Pageable): Page&amp;lt;NewsDTO&amp;gt;&lt;br/&gt;+ createFromTxt(MultipartFile, String, Long): NewsDTO&lt;br/&gt;+ searchNews(String, Pageable): Page&amp;lt;NewsDTO&amp;gt;&lt;br/&gt;+ getLatestNews(int): List&amp;lt;NewsDTO&amp;gt;&lt;br/&gt;+ createFromUrl(String, Long): NewsDTO&lt;br/&gt;+ getNewsByDateRange(LocalDateTime, LocalDateTime): List&amp;lt;NewsDTO&amp;gt;&lt;br/&gt;+ createFromDocx(MultipartFile, String, Long): NewsDTO&lt;br/&gt;+ getAllNews(Pageable): Page&amp;lt;NewsDTO&amp;gt;&lt;br/&gt;+ createFromPdf(MultipartFile, String, Long): NewsDTO&lt;br/&gt;+ getNewsByDateRange(LocalDateTime, LocalDateTime, Pageable): Page&amp;lt;NewsDTO&amp;gt;&lt;br/&gt;+ createNews(String, String, Long): NewsDTO&lt;/p&gt;" style="verticalAlign=top;align=left;overflow=fill;fontSize=14;fontFamily=Helvetica;html=1;rounded=0;shadow=0;comic=0;labelBackgroundColor=none;strokeWidth=1;">
      <mxGeometry x="1916" y="3447" width="706" height="496" as="geometry" />
    </mxCell>
    <mxCell id="node2" parent="1" vertex="1" value="&lt;p style=&quot;margin:0px;margin-top:4px;text-align:center;&quot;&gt;&lt;b&gt;NewsUpload&lt;/b&gt;&lt;/p&gt;&lt;hr size=&quot;1&quot;/&gt;&lt;p style=&quot;margin:0 0 0 4px;line-height:1.6;&quot;&gt;- message: String&lt;/p&gt;&lt;hr size=&quot;1&quot;/&gt;&lt;p style=&quot;margin:0 0 0 4px;line-height:1.6;&quot;&gt; message: String&lt;/p&gt;" style="verticalAlign=top;align=left;overflow=fill;fontSize=14;fontFamily=Helvetica;html=1;rounded=0;shadow=0;comic=0;labelBackgroundColor=none;strokeWidth=1;">
      <mxGeometry x="4357" y="2362" width="185" height="116" as="geometry" />
    </mxCell>
    <mxCell id="node28" parent="1" vertex="1" value="&lt;p style=&quot;margin:0px;margin-top:4px;text-align:center;&quot;&gt;&lt;b&gt;Relationship&lt;/b&gt;&lt;/p&gt;&lt;hr size=&quot;1&quot;/&gt;&lt;p style=&quot;margin:0 0 0 4px;line-height:1.6;&quot;&gt;- sourceEntity: String&lt;br/&gt;- confidence: double&lt;br/&gt;- sentenceIndex: int&lt;br/&gt;- targetEntity: String&lt;br/&gt;- type: String&lt;/p&gt;&lt;hr size=&quot;1&quot;/&gt;&lt;p style=&quot;margin:0 0 0 4px;line-height:1.6;&quot;&gt; sourceEntity: String&lt;br/&gt; confidence: double&lt;br/&gt; targetEntity: String&lt;br/&gt; sentenceIndex: int&lt;br/&gt; type: String&lt;/p&gt;" style="verticalAlign=top;align=left;overflow=fill;fontSize=14;fontFamily=Helvetica;html=1;rounded=0;shadow=0;comic=0;labelBackgroundColor=none;strokeWidth=1;">
      <mxGeometry x="6166" y="182" width="207" height="347" as="geometry" />
    </mxCell>
    <mxCell id="node25" parent="1" vertex="1" value="&lt;p style=&quot;margin:0px;margin-top:4px;text-align:center;&quot;&gt;&lt;b&gt;ResourceNotFoundException&lt;/b&gt;&lt;/p&gt;&lt;hr size=&quot;1&quot;/&gt;" style="verticalAlign=top;align=left;overflow=fill;fontSize=14;fontFamily=Helvetica;html=1;rounded=0;shadow=0;comic=0;labelBackgroundColor=none;strokeWidth=1;">
      <mxGeometry x="1899" y="2838" width="340" height="38" as="geometry" />
    </mxCell>
    <mxCell id="node8" parent="1" vertex="1" value="&lt;p style=&quot;margin:0px;margin-top:4px;text-align:center;&quot;&gt;&lt;b&gt;ResourceNotFoundExceptionHandler&lt;/b&gt;&lt;/p&gt;&lt;hr size=&quot;1&quot;/&gt;&lt;p style=&quot;margin:0 0 0 4px;line-height:1.6;&quot;&gt;+ handleResourceNotFoundException(ResourceNotFoundException): ResponseEntity&amp;lt;Failure&amp;gt;&lt;/p&gt;" style="verticalAlign=top;align=left;overflow=fill;fontSize=14;fontFamily=Helvetica;html=1;rounded=0;shadow=0;comic=0;labelBackgroundColor=none;strokeWidth=1;">
      <mxGeometry x="3227" y="4197" width="764" height="82" as="geometry" />
    </mxCell>
    <mxCell id="node48" parent="1" vertex="1" value="&lt;p style=&quot;margin:0px;margin-top:4px;text-align:center;&quot;&gt;&lt;i&gt;&amp;lt;&amp;lt;enumeration&amp;gt;&amp;gt;&lt;/i&gt;&lt;br/&gt;&lt;b&gt;Role&lt;/b&gt;&lt;/p&gt;&lt;hr size=&quot;1&quot;/&gt;&lt;p style=&quot;margin:0 0 0 4px;line-height:1.6;&quot;&gt;+ valueOf(String): Role&lt;br/&gt;+ values(): Role[]&lt;/p&gt;" style="verticalAlign=top;align=left;overflow=fill;fontSize=14;fontFamily=Helvetica;html=1;rounded=0;shadow=0;comic=0;labelBackgroundColor=none;strokeWidth=1;">
      <mxGeometry x="681" y="-18" width="217" height="133" as="geometry" />
    </mxCell>
    <mxCell id="node49" parent="1" vertex="1" value="&lt;p style=&quot;margin:0px;margin-top:4px;text-align:center;&quot;&gt;&lt;b&gt;SecurityConfig&lt;/b&gt;&lt;/p&gt;&lt;hr size=&quot;1&quot;/&gt;&lt;p style=&quot;margin:0 0 0 4px;line-height:1.6;&quot;&gt;+ securityFilterChain(HttpSecurity): SecurityFilterChain&lt;br/&gt;+ authenticationProvider(): AuthenticationProvider&lt;br/&gt;+ passwordEncoder(): PasswordEncoder&lt;br/&gt;+ authenticationManager(HttpSecurity): AuthenticationManager&lt;/p&gt;" style="verticalAlign=top;align=left;overflow=fill;fontSize=14;fontFamily=Helvetica;html=1;rounded=0;shadow=0;comic=0;labelBackgroundColor=none;strokeWidth=1;">
      <mxGeometry x="6086" y="3252" width="527" height="166" as="geometry" />
    </mxCell>
    <mxCell id="node61" parent="1" vertex="1" value="&lt;p style=&quot;margin:0px;margin-top:4px;text-align:center;&quot;&gt;&lt;b&gt;SignUpRequest&lt;/b&gt;&lt;/p&gt;&lt;hr size=&quot;1&quot;/&gt;&lt;p style=&quot;margin:0 0 0 4px;line-height:1.6;&quot;&gt;- password: String&lt;br/&gt;- email: String&lt;br/&gt;- name: String&lt;/p&gt;&lt;hr size=&quot;1&quot;/&gt;&lt;p style=&quot;margin:0 0 0 4px;line-height:1.6;&quot;&gt; name: String&lt;br/&gt; email: String&lt;br/&gt; password: String&lt;/p&gt;" style="verticalAlign=top;align=left;overflow=fill;fontSize=14;fontFamily=Helvetica;html=1;rounded=0;shadow=0;comic=0;labelBackgroundColor=none;strokeWidth=1;">
      <mxGeometry x="5123" y="4122" width="212" height="227" as="geometry" />
    </mxCell>
    <mxCell id="node45" parent="1" vertex="1" value="&lt;p style=&quot;margin:0px;margin-top:4px;text-align:center;&quot;&gt;&lt;b&gt;SignUpResponse&lt;/b&gt;&lt;/p&gt;&lt;hr size=&quot;1&quot;/&gt;&lt;p style=&quot;margin:0 0 0 4px;line-height:1.6;&quot;&gt;- message: String&lt;/p&gt;&lt;hr size=&quot;1&quot;/&gt;&lt;p style=&quot;margin:0 0 0 4px;line-height:1.6;&quot;&gt; message: String&lt;/p&gt;" style="verticalAlign=top;align=left;overflow=fill;fontSize=14;fontFamily=Helvetica;html=1;rounded=0;shadow=0;comic=0;labelBackgroundColor=none;strokeWidth=1;">
      <mxGeometry x="476" y="302" width="227" height="116" as="geometry" />
    </mxCell>
    <mxCell id="node16" parent="1" vertex="1" value="&lt;p style=&quot;margin:0px;margin-top:4px;text-align:center;&quot;&gt;&lt;b&gt;StanfordNLPProcessor&lt;/b&gt;&lt;/p&gt;&lt;hr size=&quot;1&quot;/&gt;&lt;p style=&quot;margin:0 0 0 4px;line-height:1.6;&quot;&gt;- addRelationship(List&amp;lt;Relationship&amp;gt;, Map&amp;lt;String, Set&amp;lt;String&amp;gt;&amp;gt;, String, String, String, double, int): void&lt;br/&gt;- extractEntities(CoreDocument): List&amp;lt;Entity&amp;gt;&lt;br/&gt;- extractRelationships(CoreDocument): List&amp;lt;Relationship&amp;gt;&lt;br/&gt;- findFullEntity(IndexedWord, SemanticGraph, Map&amp;lt;String, String&amp;gt;): String?&lt;br/&gt;- addOrUpdateEntity(Map&amp;lt;String, Entity&amp;gt;, String, String, int): void&lt;br/&gt;- extractKeyPhrases(CoreDocument): List&amp;lt;String&amp;gt;&lt;br/&gt;+ processNewsText(String, String): NewsProcessingResult&lt;br/&gt;- getNounPhrases(Tree): List&amp;lt;Tree&amp;gt;&lt;br/&gt;- normalizeVerb(String): String&lt;br/&gt;- mapNerType(String): String&lt;br/&gt;- findMatchingEntity(String, Map&amp;lt;String, String&amp;gt;): String?&lt;br/&gt;- filterHighQualityRelationships(List&amp;lt;Relationship&amp;gt;): List&amp;lt;Relationship&amp;gt;&lt;br/&gt;- isCommonPronoun(String): boolean&lt;br/&gt;- isSubstantiveWord(String): boolean&lt;br/&gt;- extractAllEntities(CoreDocument): List&amp;lt;Entity&amp;gt;&lt;br/&gt;- buildCoreferenceMap(CoreDocument): Map&amp;lt;Integer, String&amp;gt;&lt;br/&gt;- isPronoun(String): boolean&lt;br/&gt;- normalizeRelation(String): String&lt;/p&gt;" style="verticalAlign=top;align=left;overflow=fill;fontSize=14;fontFamily=Helvetica;html=1;rounded=0;shadow=0;comic=0;labelBackgroundColor=none;strokeWidth=1;">
      <mxGeometry x="6410" y="2562" width="598" height="586" as="geometry" />
    </mxCell>
    <mxCell id="node10" parent="1" vertex="1" value="&lt;p style=&quot;margin:0px;margin-top:4px;text-align:center;&quot;&gt;&lt;b&gt;Success&lt;/b&gt;&lt;/p&gt;&lt;hr size=&quot;1&quot;/&gt;&lt;p style=&quot;margin:0 0 0 4px;line-height:1.6;&quot;&gt;- users: List&amp;lt;UserDTO&amp;gt;&lt;/p&gt;&lt;hr size=&quot;1&quot;/&gt;&lt;p style=&quot;margin:0 0 0 4px;line-height:1.6;&quot;&gt; users: List&amp;lt;UserDTO&amp;gt;&lt;/p&gt;" style="verticalAlign=top;align=left;overflow=fill;fontSize=14;fontFamily=Helvetica;html=1;rounded=0;shadow=0;comic=0;labelBackgroundColor=none;strokeWidth=1;">
      <mxGeometry x="1316" y="1602" width="227" height="116" as="geometry" />
    </mxCell>
    <mxCell id="node12" parent="1" vertex="1" value="&lt;p style=&quot;margin:0px;margin-top:4px;text-align:center;&quot;&gt;&lt;b&gt;Success&lt;/b&gt;&lt;/p&gt;&lt;hr size=&quot;1&quot;/&gt;&lt;p style=&quot;margin:0 0 0 4px;line-height:1.6;&quot;&gt;- token: String&lt;br/&gt;- user: UserDTO&lt;/p&gt;&lt;hr size=&quot;1&quot;/&gt;&lt;p style=&quot;margin:0 0 0 4px;line-height:1.6;&quot;&gt; user: UserDTO&lt;br/&gt; token: String&lt;/p&gt;" style="verticalAlign=top;align=left;overflow=fill;fontSize=14;fontFamily=Helvetica;html=1;rounded=0;shadow=0;comic=0;labelBackgroundColor=none;strokeWidth=1;">
      <mxGeometry x="705" y="1952" width="168" height="167" as="geometry" />
    </mxCell>
    <mxCell id="node27" parent="1" vertex="1" value="&lt;p style=&quot;margin:0px;margin-top:4px;text-align:center;&quot;&gt;&lt;b&gt;Success&lt;/b&gt;&lt;/p&gt;&lt;hr size=&quot;1&quot;/&gt;&lt;p style=&quot;margin:0 0 0 4px;line-height:1.6;&quot;&gt;- token: String&lt;br/&gt;- user: UserDTO&lt;/p&gt;&lt;hr size=&quot;1&quot;/&gt;&lt;p style=&quot;margin:0 0 0 4px;line-height:1.6;&quot;&gt; user: UserDTO&lt;br/&gt; token: String&lt;/p&gt;" style="verticalAlign=top;align=left;overflow=fill;fontSize=14;fontFamily=Helvetica;html=1;rounded=0;shadow=0;comic=0;labelBackgroundColor=none;strokeWidth=1;">
      <mxGeometry x="1705" y="1572" width="168" height="167" as="geometry" />
    </mxCell>
    <mxCell id="node43" parent="1" vertex="1" value="&lt;p style=&quot;margin:0px;margin-top:4px;text-align:center;&quot;&gt;&lt;b&gt;Success&lt;/b&gt;&lt;/p&gt;&lt;hr size=&quot;1&quot;/&gt;&lt;p style=&quot;margin:0 0 0 4px;line-height:1.6;&quot;&gt;- news: NewsDTO&lt;/p&gt;&lt;hr size=&quot;1&quot;/&gt;&lt;p style=&quot;margin:0 0 0 4px;line-height:1.6;&quot;&gt; news: NewsDTO&lt;/p&gt;" style="verticalAlign=top;align=left;overflow=fill;fontSize=14;fontFamily=Helvetica;html=1;rounded=0;shadow=0;comic=0;labelBackgroundColor=none;strokeWidth=1;">
      <mxGeometry x="4078" y="3282" width="182" height="116" as="geometry" />
    </mxCell>
    <mxCell id="node54" parent="1" vertex="1" value="&lt;p style=&quot;margin:0px;margin-top:4px;text-align:center;&quot;&gt;&lt;b&gt;Success&lt;/b&gt;&lt;/p&gt;&lt;hr size=&quot;1&quot;/&gt;&lt;p style=&quot;margin:0 0 0 4px;line-height:1.6;&quot;&gt;- user: UserDTO&lt;/p&gt;&lt;hr size=&quot;1&quot;/&gt;&lt;p style=&quot;margin:0 0 0 4px;line-height:1.6;&quot;&gt; user: UserDTO&lt;/p&gt;" style="verticalAlign=top;align=left;overflow=fill;fontSize=14;fontFamily=Helvetica;html=1;rounded=0;shadow=0;comic=0;labelBackgroundColor=none;strokeWidth=1;">
      <mxGeometry x="305" y="1982" width="168" height="116" as="geometry" />
    </mxCell>
    <mxCell id="node60" parent="1" vertex="1" value="&lt;p style=&quot;margin:0px;margin-top:4px;text-align:center;&quot;&gt;&lt;b&gt;Success&lt;/b&gt;&lt;/p&gt;&lt;hr size=&quot;1&quot;/&gt;&lt;p style=&quot;margin:0 0 0 4px;line-height:1.6;&quot;&gt;- news: NewsDTO&lt;/p&gt;&lt;hr size=&quot;1&quot;/&gt;&lt;p style=&quot;margin:0 0 0 4px;line-height:1.6;&quot;&gt; news: NewsDTO&lt;/p&gt;" style="verticalAlign=top;align=left;overflow=fill;fontSize=14;fontFamily=Helvetica;html=1;rounded=0;shadow=0;comic=0;labelBackgroundColor=none;strokeWidth=1;">
      <mxGeometry x="958" y="3282" width="182" height="116" as="geometry" />
    </mxCell>
    <mxCell id="node75" parent="1" vertex="1" value="&lt;p style=&quot;margin:0px;margin-top:4px;text-align:center;&quot;&gt;&lt;b&gt;Success&lt;/b&gt;&lt;/p&gt;&lt;hr size=&quot;1&quot;/&gt;&lt;p style=&quot;margin:0 0 0 4px;line-height:1.6;&quot;&gt;- user: UserDTO&lt;/p&gt;&lt;hr size=&quot;1&quot;/&gt;&lt;p style=&quot;margin:0 0 0 4px;line-height:1.6;&quot;&gt; user: UserDTO&lt;/p&gt;" style="verticalAlign=top;align=left;overflow=fill;fontSize=14;fontFamily=Helvetica;html=1;rounded=0;shadow=0;comic=0;labelBackgroundColor=none;strokeWidth=1;">
      <mxGeometry x="1545" y="1982" width="168" height="116" as="geometry" />
    </mxCell>
    <mxCell id="node0" parent="1" vertex="1" value="&lt;p style=&quot;margin:0px;margin-top:4px;text-align:center;&quot;&gt;&lt;b&gt;SuccessLarge&lt;/b&gt;&lt;/p&gt;&lt;hr size=&quot;1&quot;/&gt;&lt;p style=&quot;margin:0 0 0 4px;line-height:1.6;&quot;&gt;- users: Page&amp;lt;UserDTO&amp;gt;&lt;/p&gt;&lt;hr size=&quot;1&quot;/&gt;&lt;p style=&quot;margin:0 0 0 4px;line-height:1.6;&quot;&gt; users: Page&amp;lt;UserDTO&amp;gt;&lt;/p&gt;" style="verticalAlign=top;align=left;overflow=fill;fontSize=14;fontFamily=Helvetica;html=1;rounded=0;shadow=0;comic=0;labelBackgroundColor=none;strokeWidth=1;">
      <mxGeometry x="1090" y="1982" width="238" height="116" as="geometry" />
    </mxCell>
    <mxCell id="node62" parent="1" vertex="1" value="&lt;p style=&quot;margin:0px;margin-top:4px;text-align:center;&quot;&gt;&lt;b&gt;SuccessList&lt;/b&gt;&lt;/p&gt;&lt;hr size=&quot;1&quot;/&gt;&lt;p style=&quot;margin:0 0 0 4px;line-height:1.6;&quot;&gt;- total: Long&lt;br/&gt;- newsList: List&amp;lt;NewsDTO&amp;gt;&lt;/p&gt;&lt;hr size=&quot;1&quot;/&gt;&lt;p style=&quot;margin:0 0 0 4px;line-height:1.6;&quot;&gt; newsList: List&amp;lt;NewsDTO&amp;gt;&lt;br/&gt; total: Long&lt;/p&gt;" style="verticalAlign=top;align=left;overflow=fill;fontSize=14;fontFamily=Helvetica;html=1;rounded=0;shadow=0;comic=0;labelBackgroundColor=none;strokeWidth=1;">
      <mxGeometry x="659" y="3612" width="260" height="167" as="geometry" />
    </mxCell>
    <mxCell id="node18" parent="1" vertex="1" value="&lt;p style=&quot;margin:0px;margin-top:4px;text-align:center;&quot;&gt;&lt;b&gt;UnallowedMethod&lt;/b&gt;&lt;/p&gt;&lt;hr size=&quot;1&quot;/&gt;" style="verticalAlign=top;align=left;overflow=fill;fontSize=14;fontFamily=Helvetica;html=1;rounded=0;shadow=0;comic=0;labelBackgroundColor=none;strokeWidth=1;">
      <mxGeometry x="871" y="1638" width="236" height="38" as="geometry" />
    </mxCell>
    <mxCell id="node63" parent="1" vertex="1" value="&lt;p style=&quot;margin:0px;margin-top:4px;text-align:center;&quot;&gt;&lt;b&gt;UnallowedMethod&lt;/b&gt;&lt;/p&gt;&lt;hr size=&quot;1&quot;/&gt;" style="verticalAlign=top;align=left;overflow=fill;fontSize=14;fontFamily=Helvetica;html=1;rounded=0;shadow=0;comic=0;labelBackgroundColor=none;strokeWidth=1;">
      <mxGeometry x="3091" y="1638" width="236" height="38" as="geometry" />
    </mxCell>
    <mxCell id="node15" parent="1" vertex="1" value="&lt;p style=&quot;margin:0px;margin-top:4px;text-align:center;&quot;&gt;&lt;b&gt;UnallowedMethodException&lt;/b&gt;&lt;/p&gt;&lt;hr size=&quot;1&quot;/&gt;" style="verticalAlign=top;align=left;overflow=fill;fontSize=14;fontFamily=Helvetica;html=1;rounded=0;shadow=0;comic=0;labelBackgroundColor=none;strokeWidth=1;">
      <mxGeometry x="-16" y="1638" width="330" height="38" as="geometry" />
    </mxCell>
    <mxCell id="node38" parent="1" vertex="1" value="&lt;p style=&quot;margin:0px;margin-top:4px;text-align:center;&quot;&gt;&lt;b&gt;UnallowedMethodExceptionHandler&lt;/b&gt;&lt;/p&gt;&lt;hr size=&quot;1&quot;/&gt;&lt;p style=&quot;margin:0 0 0 4px;line-height:1.6;&quot;&gt;+ handleUnallowedMethodException(UnallowedMethodException): ResponseEntity&amp;lt;UnallowedMethod&amp;gt;&lt;/p&gt;" style="verticalAlign=top;align=left;overflow=fill;fontSize=14;fontFamily=Helvetica;html=1;rounded=0;shadow=0;comic=0;labelBackgroundColor=none;strokeWidth=1;">
      <mxGeometry x="2790" y="2817" width="838" height="82" as="geometry" />
    </mxCell>
    <mxCell id="node76" parent="1" vertex="1" value="&lt;p style=&quot;margin:0px;margin-top:4px;text-align:center;&quot;&gt;&lt;b&gt;UpdateMe&lt;/b&gt;&lt;/p&gt;&lt;hr size=&quot;1&quot;/&gt;&lt;p style=&quot;margin:0 0 0 4px;line-height:1.6;&quot;&gt;- email: String&lt;br/&gt;- name: String&lt;/p&gt;&lt;hr size=&quot;1&quot;/&gt;&lt;p style=&quot;margin:0 0 0 4px;line-height:1.6;&quot;&gt; name: String&lt;br/&gt; email: String&lt;/p&gt;" style="verticalAlign=top;align=left;overflow=fill;fontSize=14;fontFamily=Helvetica;html=1;rounded=0;shadow=0;comic=0;labelBackgroundColor=none;strokeWidth=1;">
      <mxGeometry x="1387" y="4492" width="164" height="167" as="geometry" />
    </mxCell>
    <mxCell id="node41" parent="1" vertex="1" value="&lt;p style=&quot;margin:0px;margin-top:4px;text-align:center;&quot;&gt;&lt;b&gt;UpdatePassword&lt;/b&gt;&lt;/p&gt;&lt;hr size=&quot;1&quot;/&gt;&lt;p style=&quot;margin:0 0 0 4px;line-height:1.6;&quot;&gt;- newPassword: String&lt;br/&gt;- oldPassword: String&lt;/p&gt;&lt;hr size=&quot;1&quot;/&gt;&lt;p style=&quot;margin:0 0 0 4px;line-height:1.6;&quot;&gt; oldPassword: String&lt;br/&gt; newPassword: String&lt;/p&gt;" style="verticalAlign=top;align=left;overflow=fill;fontSize=14;fontFamily=Helvetica;html=1;rounded=0;shadow=0;comic=0;labelBackgroundColor=none;strokeWidth=1;">
      <mxGeometry x="-23" y="4152" width="225" height="167" as="geometry" />
    </mxCell>
    <mxCell id="node35" parent="1" vertex="1" value="&lt;p style=&quot;margin:0px;margin-top:4px;text-align:center;&quot;&gt;&lt;b&gt;UpdateResponse&lt;/b&gt;&lt;/p&gt;&lt;hr size=&quot;1&quot;/&gt;&lt;p style=&quot;margin:0 0 0 4px;line-height:1.6;&quot;&gt;- message: String&lt;/p&gt;&lt;hr size=&quot;1&quot;/&gt;&lt;p style=&quot;margin:0 0 0 4px;line-height:1.6;&quot;&gt; message: String&lt;/p&gt;" style="verticalAlign=top;align=left;overflow=fill;fontSize=14;fontFamily=Helvetica;html=1;rounded=0;shadow=0;comic=0;labelBackgroundColor=none;strokeWidth=1;">
      <mxGeometry x="-124" y="882" width="227" height="116" as="geometry" />
    </mxCell>
    <mxCell id="node3" parent="1" vertex="1" value="&lt;p style=&quot;margin:0px;margin-top:4px;text-align:center;&quot;&gt;&lt;b&gt;UpdateUserRequest&lt;/b&gt;&lt;/p&gt;&lt;hr size=&quot;1&quot;/&gt;&lt;p style=&quot;margin:0 0 0 4px;line-height:1.6;&quot;&gt;- email: String&lt;br/&gt;- password: String&lt;br/&gt;- name: String&lt;br/&gt;- role: Role&lt;/p&gt;&lt;hr size=&quot;1&quot;/&gt;&lt;p style=&quot;margin:0 0 0 4px;line-height:1.6;&quot;&gt; name: String&lt;br/&gt; password: String&lt;br/&gt; role: Role&lt;br/&gt; email: String&lt;/p&gt;" style="verticalAlign=top;align=left;overflow=fill;fontSize=14;fontFamily=Helvetica;html=1;rounded=0;shadow=0;comic=0;labelBackgroundColor=none;strokeWidth=1;">
      <mxGeometry x="6341" y="792" width="256" height="287" as="geometry" />
    </mxCell>
    <mxCell id="node13" parent="1" vertex="1" value="&lt;p style=&quot;margin:0px;margin-top:4px;text-align:center;&quot;&gt;&lt;b&gt;User&lt;/b&gt;&lt;/p&gt;&lt;hr size=&quot;1&quot;/&gt;&lt;p style=&quot;margin:0 0 0 4px;line-height:1.6;&quot;&gt;- role: Role&lt;br/&gt;- isActive: Boolean&lt;br/&gt;- createdAt: LocalDateTime&lt;br/&gt;- id: Long&lt;br/&gt;- name: String&lt;br/&gt;- email: String&lt;br/&gt;- password: String&lt;br/&gt;- image: byte[]&lt;br/&gt;- news: List&amp;lt;News&amp;gt;&lt;/p&gt;&lt;hr size=&quot;1&quot;/&gt;&lt;p style=&quot;margin:0 0 0 4px;line-height:1.6;&quot;&gt; role: Role&lt;br/&gt; createdAt: LocalDateTime&lt;br/&gt; image: byte[]&lt;br/&gt; id: Long&lt;br/&gt; accountNonLocked: boolean&lt;br/&gt; authorities: Collection&amp;lt;GrantedAuthority&amp;gt;&lt;br/&gt; enabled: boolean&lt;br/&gt; news: List&amp;lt;News&amp;gt;&lt;br/&gt; name: String&lt;br/&gt; accountNonExpired: boolean&lt;br/&gt; credentialsNonExpired: boolean&lt;br/&gt; password: String&lt;br/&gt; email: String&lt;br/&gt; username: String&lt;br/&gt; isActive: Boolean&lt;/p&gt;" style="verticalAlign=top;align=left;overflow=fill;fontSize=14;fontFamily=Helvetica;html=1;rounded=0;shadow=0;comic=0;labelBackgroundColor=none;strokeWidth=1;">
      <mxGeometry x="3920" y="552" width="379" height="767" as="geometry" />
    </mxCell>
    <mxCell id="node74" parent="1" vertex="1" value="&lt;p style=&quot;margin:0px;margin-top:4px;text-align:center;&quot;&gt;&lt;b&gt;UserController&lt;/b&gt;&lt;/p&gt;&lt;hr size=&quot;1&quot;/&gt;&lt;p style=&quot;margin:0 0 0 4px;line-height:1.6;&quot;&gt;+ updateMePassword(String, UpdatePassword): ResponseEntity&amp;lt;UpdateResponse&amp;gt;&lt;br/&gt;+ signUp(SignUpRequest): ResponseEntity&amp;lt;SignUpResponse&amp;gt;&lt;br/&gt;+ getImage(Long): ResponseEntity&amp;lt;byte[]&amp;gt;&lt;br/&gt;+ deleteMe(String): ResponseEntity&amp;lt;UpdateResponse&amp;gt;&lt;br/&gt;+ debug(): ResponseEntity&amp;lt;String&amp;gt;&lt;br/&gt;+ me(String): ResponseEntity&amp;lt;GetUserResponse&amp;gt;&lt;br/&gt;+ updateMe(String, UpdateMe, MultipartFile): ResponseEntity&amp;lt;UpdateResponse&amp;gt;&lt;br/&gt;+ login(LoginRequest): ResponseEntity&amp;lt;LoginResponse&amp;gt;&lt;br/&gt;+ updateUser(Long, UpdateUserRequest): ResponseEntity&amp;lt;UpdateResponse&amp;gt;&lt;br/&gt;+ getAllUsers(Integer, Integer): ResponseEntity&amp;lt;ListUsersResponse&amp;gt;&lt;br/&gt;+ deleteUser(Long): ResponseEntity&amp;lt;UpdateResponse&amp;gt;&lt;br/&gt;+ createUser(CreateUserRequest): ResponseEntity&amp;lt;SignUpResponse&amp;gt;&lt;br/&gt;+ getUser(String, Long): ResponseEntity&amp;lt;GetUserResponse&amp;gt;&lt;/p&gt;" style="verticalAlign=top;align=left;overflow=fill;fontSize=14;fontFamily=Helvetica;html=1;rounded=0;shadow=0;comic=0;labelBackgroundColor=none;strokeWidth=1;">
      <mxGeometry x="1166" y="2637" width="686" height="436" as="geometry" />
    </mxCell>
    <mxCell id="node70" parent="1" vertex="1" value="&lt;p style=&quot;margin:0px;margin-top:4px;text-align:center;&quot;&gt;&lt;b&gt;UserDTO&lt;/b&gt;&lt;/p&gt;&lt;hr size=&quot;1&quot;/&gt;&lt;p style=&quot;margin:0 0 0 4px;line-height:1.6;&quot;&gt;- name: String&lt;br/&gt;- id: Long&lt;br/&gt;- role: Role&lt;br/&gt;- email: String&lt;/p&gt;&lt;hr size=&quot;1&quot;/&gt;&lt;p style=&quot;margin:0 0 0 4px;line-height:1.6;&quot;&gt; name: String&lt;br/&gt; role: Role&lt;br/&gt; id: Long&lt;br/&gt; email: String&lt;/p&gt;" style="verticalAlign=top;align=left;overflow=fill;fontSize=14;fontFamily=Helvetica;html=1;rounded=0;shadow=0;comic=0;labelBackgroundColor=none;strokeWidth=1;">
      <mxGeometry x="6773" y="792" width="153" height="287" as="geometry" />
    </mxCell>
    <mxCell id="node50" parent="1" vertex="1" value="&lt;p style=&quot;margin:0px;margin-top:4px;text-align:center;&quot;&gt;&lt;b&gt;UserDetailsServiceImplementation&lt;/b&gt;&lt;/p&gt;&lt;hr size=&quot;1&quot;/&gt;&lt;p style=&quot;margin:0 0 0 4px;line-height:1.6;&quot;&gt;+ loadUserByUsername(String): UserDetails&lt;/p&gt;" style="verticalAlign=top;align=left;overflow=fill;fontSize=14;fontFamily=Helvetica;html=1;rounded=0;shadow=0;comic=0;labelBackgroundColor=none;strokeWidth=1;">
      <mxGeometry x="5834" y="1997" width="390" height="82" as="geometry" />
    </mxCell>
    <mxCell id="node73" parent="1" vertex="1" value="&lt;p style=&quot;margin:0px;margin-top:4px;text-align:center;&quot;&gt;&lt;b&gt;UserMapper&lt;/b&gt;&lt;/p&gt;&lt;hr size=&quot;1&quot;/&gt;&lt;p style=&quot;margin:0 0 0 4px;line-height:1.6;&quot;&gt;+ toDto(User): UserDTO&lt;br/&gt;+ toDto(List&amp;lt;User&amp;gt;): List&amp;lt;UserDTO&amp;gt;&lt;/p&gt;" style="verticalAlign=top;align=left;overflow=fill;fontSize=14;fontFamily=Helvetica;html=1;rounded=0;shadow=0;comic=0;labelBackgroundColor=none;strokeWidth=1;">
      <mxGeometry x="6684" y="1602" width="331" height="114" as="geometry" />
    </mxCell>
    <mxCell id="node6" parent="1" vertex="1" value="&lt;p style=&quot;margin:0px;margin-top:4px;text-align:center;&quot;&gt;&lt;i&gt;&amp;lt;&amp;lt;interface&amp;gt;&amp;gt;&lt;/i&gt;&lt;br/&gt;&lt;b&gt;UserRepository&lt;/b&gt;&lt;/p&gt;&lt;hr size=&quot;1&quot;/&gt;&lt;p style=&quot;margin:0 0 0 4px;line-height:1.6;&quot;&gt;+ findByEmail(String): Optional&amp;lt;User&amp;gt;&lt;/p&gt;" style="verticalAlign=top;align=left;overflow=fill;fontSize=14;fontFamily=Helvetica;html=1;rounded=0;shadow=0;comic=0;labelBackgroundColor=none;strokeWidth=1;">
      <mxGeometry x="5860" y="897" width="338" height="95" as="geometry" />
    </mxCell>
    <mxCell id="node32" parent="1" vertex="1" value="&lt;p style=&quot;margin:0px;margin-top:4px;text-align:center;&quot;&gt;&lt;b&gt;UserService&lt;/b&gt;&lt;/p&gt;&lt;hr size=&quot;1&quot;/&gt;&lt;p style=&quot;margin:0 0 0 4px;line-height:1.6;&quot;&gt;+ deleteUser(Long): UserDTO&lt;br/&gt;+ getUser(Long): UserDTO&lt;br/&gt;+ updateUser(Long, UpdateUserRequest): UserDTO&lt;br/&gt;+ createUser(SignUpRequest): UserDTO&lt;br/&gt;+ updateMe(UpdateMe, Long, MultipartFile): UserDTO&lt;br/&gt;+ createUserByAdmin(CreateUserRequest): UserDTO&lt;br/&gt;+ getImage(Long): byte[]&lt;br/&gt;+ updatePassword(UpdatePassword, Long): UserDTO&lt;br/&gt;+ getAllUsers(Pageable): Page&amp;lt;UserDTO&amp;gt;&lt;br/&gt;+ login(String, String): UserDTO&lt;/p&gt;" style="verticalAlign=top;align=left;overflow=fill;fontSize=14;fontFamily=Helvetica;html=1;rounded=0;shadow=0;comic=0;labelBackgroundColor=none;strokeWidth=1;">
      <mxGeometry x="3381" y="1862" width="457" height="346" as="geometry" />
    </mxCell>
    <mxCell id="node14" parent="1" vertex="1" value="&lt;p style=&quot;margin:0px;margin-top:4px;text-align:center;&quot;&gt;&lt;b&gt;build&lt;/b&gt;&lt;/p&gt;&lt;hr size=&quot;1&quot;/&gt;&lt;p style=&quot;margin:0 0 0 4px;line-height:1.6;&quot;&gt;+ getProperty(String): Object&lt;br/&gt;+ main(String[]): void&lt;br/&gt;+ setProperty(String, Object): void&lt;br/&gt;+ run(): Object&lt;br/&gt;+ invokeMethod(String, Object): Object&lt;/p&gt;&lt;hr size=&quot;1&quot;/&gt;&lt;p style=&quot;margin:0 0 0 4px;line-height:1.6;&quot;&gt; metaClass: MetaClass&lt;/p&gt;" style="verticalAlign=top;align=left;overflow=fill;fontSize=14;fontFamily=Helvetica;html=1;rounded=0;shadow=0;comic=0;labelBackgroundColor=none;strokeWidth=1;">
      <mxGeometry x="3037" y="4462" width="344" height="227" as="geometry" />
    </mxCell>
    <mxCell id="node26" parent="1" vertex="1" value="&lt;p style=&quot;margin:0px;margin-top:4px;text-align:center;&quot;&gt;&lt;b&gt;settings&lt;/b&gt;&lt;/p&gt;&lt;hr size=&quot;1&quot;/&gt;&lt;p style=&quot;margin:0 0 0 4px;line-height:1.6;&quot;&gt;+ setProperty(String, Object): void&lt;br/&gt;+ run(): Object&lt;br/&gt;+ invokeMethod(String, Object): Object&lt;br/&gt;+ main(String[]): void&lt;br/&gt;+ getProperty(String): Object&lt;/p&gt;&lt;hr size=&quot;1&quot;/&gt;&lt;p style=&quot;margin:0 0 0 4px;line-height:1.6;&quot;&gt; metaClass: MetaClass&lt;/p&gt;" style="verticalAlign=top;align=left;overflow=fill;fontSize=14;fontFamily=Helvetica;html=1;rounded=0;shadow=0;comic=0;labelBackgroundColor=none;strokeWidth=1;">
      <mxGeometry x="1097" y="4122" width="344" height="227" as="geometry" />
    </mxCell>
    <mxCell id="edge12" edge="1" value="" parent="1" source="node9" target="node45" style="html=1;rounded=1;edgeStyle=orthogonalEdgeStyle;dashed=0;startArrow=circlePlus;startFill=0;endArrow=none;strokeColor=#820000;exitX=0.750;exitY=0.001;exitDx=0;exitDy=0;entryX=0.750;entryY=1.000;entryDx=0;entryDy=0;">
      <mxGeometry width="50" height="50" relative="1" as="geometry">
        <Array as="points">
          <mxPoint x="648" y="1615" />
          <mxPoint x="649" y="1615" />
          <mxPoint x="649" y="1095" />
          <mxPoint x="646" y="1095" />
        </Array>
      </mxGeometry>
    </mxCell>
    <mxCell id="edge86" edge="1" value="" parent="1" source="node9" target="node45" style="html=1;rounded=1;edgeStyle=orthogonalEdgeStyle;dashed=0;startArrow=none;endArrow=block;endSize=12;strokeColor=#000082;exitX=0.250;exitY=0.001;exitDx=0;exitDy=0;entryX=0.250;entryY=1.000;entryDx=0;entryDy=0;">
      <mxGeometry width="50" height="50" relative="1" as="geometry">
        <Array as="points">
          <mxPoint x="531" y="1515" />
          <mxPoint x="529" y="1515" />
          <mxPoint x="529" y="435" />
          <mxPoint x="532" y="435" />
        </Array>
      </mxGeometry>
    </mxCell>
    <mxCell id="edge19" edge="1" value="" parent="1" source="node56" target="node35" style="html=1;rounded=1;edgeStyle=orthogonalEdgeStyle;dashed=0;startArrow=circlePlus;startFill=0;endArrow=none;strokeColor=#820000;exitX=0.250;exitY=0.001;exitDx=0;exitDy=0;entryX=0.250;entryY=1.000;entryDx=0;entryDy=0;">
      <mxGeometry width="50" height="50" relative="1" as="geometry">
        <Array as="points">
          <mxPoint x="-149" y="1595" />
          <mxPoint x="-71" y="1595" />
          <mxPoint x="-71" y="1015" />
          <mxPoint x="-68" y="1015" />
        </Array>
      </mxGeometry>
    </mxCell>
    <mxCell id="edge63" edge="1" value="" parent="1" source="node56" target="node35" style="html=1;rounded=1;edgeStyle=orthogonalEdgeStyle;dashed=0;startArrow=none;endArrow=block;endSize=12;strokeColor=#000082;exitX=0.750;exitY=0.001;exitDx=0;exitDy=0;entryX=0.750;entryY=1.000;entryDx=0;entryDy=0;">
      <mxGeometry width="50" height="50" relative="1" as="geometry">
        <Array as="points">
          <mxPoint x="-32" y="1615" />
          <mxPoint x="49" y="1615" />
          <mxPoint x="49" y="1015" />
          <mxPoint x="46" y="1015" />
        </Array>
      </mxGeometry>
    </mxCell>
    <mxCell id="edge3" edge="1" value="" parent="1" source="node66" target="node56" style="html=1;rounded=1;edgeStyle=orthogonalEdgeStyle;dashed=1;startArrow=none;endArrow=openThin;endSize=12;strokeColor=#595959;exitX=0.500;exitY=0.001;exitDx=0;exitDy=0;entryX=0.500;entryY=1.001;entryDx=0;entryDy=0;">
      <mxGeometry width="50" height="50" relative="1" as="geometry">
        <Array as="points">
          <mxPoint x="349" y="2355" />
          <mxPoint x="-91" y="2355" />
        </Array>
      </mxGeometry>
    </mxCell>
    <mxCell id="label20" parent="edge3" vertex="1" connectable="0" value="«create»" style="edgeLabel;resizable=0;html=1;align=left;verticalAlign=top;strokeColor=default;">
      <mxGeometry x="105" y="2336" as="geometry" />
    </mxCell>
    <mxCell id="edge87" edge="1" value="" parent="1" source="node59" target="node7" style="html=1;rounded=1;edgeStyle=orthogonalEdgeStyle;dashed=0;startArrow=circlePlus;startFill=0;endArrow=none;strokeColor=#820000;exitX=0.750;exitY=0.000;exitDx=0;exitDy=0;entryX=0.750;entryY=1.000;entryDx=0;entryDy=0;">
      <mxGeometry width="50" height="50" relative="1" as="geometry">
        <Array as="points">
          <mxPoint x="605" y="4135" />
          <mxPoint x="609" y="4135" />
          <mxPoint x="609" y="3975" />
          <mxPoint x="535" y="3975" />
        </Array>
      </mxGeometry>
    </mxCell>
    <mxCell id="edge111" edge="1" value="" parent="1" source="node59" target="node7" style="html=1;rounded=1;edgeStyle=orthogonalEdgeStyle;dashed=0;startArrow=none;endArrow=block;endSize=12;strokeColor=#000082;exitX=0.250;exitY=0.000;exitDx=0;exitDy=0;entryX=0.250;entryY=1.000;entryDx=0;entryDy=0;">
      <mxGeometry width="50" height="50" relative="1" as="geometry">
        <Array as="points">
          <mxPoint x="454" y="4155" />
          <mxPoint x="449" y="4155" />
          <mxPoint x="449" y="3775" />
          <mxPoint x="444" y="3775" />
        </Array>
      </mxGeometry>
    </mxCell>
    <mxCell id="edge28" edge="1" value="" parent="1" source="node68" target="node7" style="html=1;rounded=1;edgeStyle=orthogonalEdgeStyle;dashed=0;startArrow=none;endArrow=block;endSize=12;strokeColor=#000082;exitX=0.250;exitY=0.001;exitDx=0;exitDy=0;entryX=0.250;entryY=1.000;entryDx=0;entryDy=0;">
      <mxGeometry width="50" height="50" relative="1" as="geometry">
        <Array as="points">
          <mxPoint x="225" y="4155" />
          <mxPoint x="449" y="4155" />
          <mxPoint x="449" y="3775" />
          <mxPoint x="444" y="3775" />
        </Array>
      </mxGeometry>
    </mxCell>
    <mxCell id="edge57" edge="1" value="" parent="1" source="node68" target="node7" style="html=1;rounded=1;edgeStyle=orthogonalEdgeStyle;dashed=0;startArrow=circlePlus;startFill=0;endArrow=none;strokeColor=#820000;exitX=0.750;exitY=0.001;exitDx=0;exitDy=0;entryX=0.750;entryY=1.000;entryDx=0;entryDy=0;">
      <mxGeometry width="50" height="50" relative="1" as="geometry">
        <Array as="points">
          <mxPoint x="353" y="4135" />
          <mxPoint x="609" y="4135" />
          <mxPoint x="609" y="3975" />
          <mxPoint x="535" y="3975" />
        </Array>
      </mxGeometry>
    </mxCell>
    <mxCell id="edge11" edge="1" value="" parent="1" source="node64" target="node7" style="html=1;rounded=1;edgeStyle=orthogonalEdgeStyle;dashed=0;startArrow=circlePlus;startFill=0;endArrow=none;strokeColor=#820000;exitX=0.750;exitY=0.000;exitDx=0;exitDy=0;entryX=0.750;entryY=1.000;entryDx=0;entryDy=0;">
      <mxGeometry width="50" height="50" relative="1" as="geometry">
        <Array as="points">
          <mxPoint x="935" y="4135" />
          <mxPoint x="609" y="4135" />
          <mxPoint x="609" y="3975" />
          <mxPoint x="535" y="3975" />
        </Array>
      </mxGeometry>
    </mxCell>
    <mxCell id="edge101" edge="1" value="" parent="1" source="node64" target="node7" style="html=1;rounded=1;edgeStyle=orthogonalEdgeStyle;dashed=0;startArrow=none;endArrow=block;endSize=12;strokeColor=#000082;exitX=0.250;exitY=0.000;exitDx=0;exitDy=0;entryX=0.250;entryY=1.000;entryDx=0;entryDy=0;">
      <mxGeometry width="50" height="50" relative="1" as="geometry">
        <Array as="points">
          <mxPoint x="803" y="4155" />
          <mxPoint x="449" y="4155" />
          <mxPoint x="449" y="3775" />
          <mxPoint x="444" y="3775" />
        </Array>
      </mxGeometry>
    </mxCell>
    <mxCell id="edge81" edge="1" value="" parent="1" source="node47" target="node48" style="html=1;rounded=1;edgeStyle=orthogonalEdgeStyle;dashed=0;startArrow=diamondThinstartSize=12;endArrow=openThin;endSize=12;strokeColor=#595959;exitX=0.500;exitY=0.000;exitDx=0;exitDy=0;entryX=0.500;entryY=1.000;entryDx=0;entryDy=0;">
      <mxGeometry width="50" height="50" relative="1" as="geometry">
        <Array as="points" />
      </mxGeometry>
    </mxCell>
    <mxCell id="label486" parent="edge81" vertex="1" connectable="0" value="1" style="edgeLabel;resizable=0;html=1;align=left;verticalAlign=top;strokeColor=default;">
      <mxGeometry x="778" y="769" as="geometry" />
    </mxCell>
    <mxCell id="label490" parent="edge81" vertex="1" connectable="0" value="1" style="edgeLabel;resizable=0;html=1;align=left;verticalAlign=top;strokeColor=default;">
      <mxGeometry x="778" y="230" as="geometry" />
    </mxCell>
    <mxCell id="label491" parent="edge81" vertex="1" connectable="0" value="role" style="edgeLabel;resizable=0;html=1;align=left;verticalAlign=top;strokeColor=default;">
      <mxGeometry x="789" y="180" as="geometry" />
    </mxCell>
    <mxCell id="edge55" edge="1" value="" parent="1" source="node67" target="node44" style="html=1;rounded=1;edgeStyle=orthogonalEdgeStyle;dashed=0;startArrow=none;endArrow=block;endSize=12;strokeColor=#000082;exitX=0.250;exitY=0.001;exitDx=0;exitDy=0;entryX=0.250;entryY=1.000;entryDx=0;entryDy=0;">
      <mxGeometry width="50" height="50" relative="1" as="geometry">
        <Array as="points">
          <mxPoint x="5036" y="1435" />
          <mxPoint x="4849" y="1435" />
          <mxPoint x="4849" y="955" />
          <mxPoint x="4857" y="955" />
        </Array>
      </mxGeometry>
    </mxCell>
    <mxCell id="edge105" edge="1" value="" parent="1" source="node67" target="node44" style="html=1;rounded=1;edgeStyle=orthogonalEdgeStyle;dashed=0;startArrow=circlePlus;startFill=0;endArrow=none;strokeColor=#820000;exitX=0.750;exitY=0.001;exitDx=0;exitDy=0;entryX=0.750;entryY=1.000;entryDx=0;entryDy=0;">
      <mxGeometry width="50" height="50" relative="1" as="geometry">
        <Array as="points">
          <mxPoint x="5142" y="1415" />
          <mxPoint x="4969" y="1415" />
          <mxPoint x="4969" y="955" />
          <mxPoint x="4962" y="955" />
        </Array>
      </mxGeometry>
    </mxCell>
    <mxCell id="edge77" edge="1" value="" parent="1" source="node77" target="node67" style="html=1;rounded=1;edgeStyle=orthogonalEdgeStyle;dashed=1;startArrow=none;endArrow=openThin;endSize=12;strokeColor=#595959;exitX=0.500;exitY=0.001;exitDx=0;exitDy=0;entryX=0.500;entryY=1.001;entryDx=0;entryDy=0;">
      <mxGeometry width="50" height="50" relative="1" as="geometry">
        <Array as="points">
          <mxPoint x="5329" y="2355" />
          <mxPoint x="5089" y="2355" />
        </Array>
      </mxGeometry>
    </mxCell>
    <mxCell id="label464" parent="edge77" vertex="1" connectable="0" value="«create»" style="edgeLabel;resizable=0;html=1;align=left;verticalAlign=top;strokeColor=default;">
      <mxGeometry x="5185" y="2336" as="geometry" />
    </mxCell>
    <mxCell id="edge17" edge="1" value="" parent="1" source="node31" target="node23" style="html=1;rounded=1;edgeStyle=orthogonalEdgeStyle;dashed=0;startArrow=none;endArrow=block;endSize=12;strokeColor=#000082;exitX=0.750;exitY=0.001;exitDx=0;exitDy=0;entryX=0.750;entryY=1.000;entryDx=0;entryDy=0;">
      <mxGeometry width="50" height="50" relative="1" as="geometry">
        <Array as="points">
          <mxPoint x="641" y="3255" />
          <mxPoint x="649" y="3255" />
          <mxPoint x="649" y="2935" />
          <mxPoint x="-38" y="2935" />
        </Array>
      </mxGeometry>
    </mxCell>
    <mxCell id="edge59" edge="1" value="" parent="1" source="node31" target="node23" style="html=1;rounded=1;edgeStyle=orthogonalEdgeStyle;dashed=0;startArrow=circlePlus;startFill=0;endArrow=none;strokeColor=#820000;exitX=0.250;exitY=0.001;exitDx=0;exitDy=0;entryX=0.250;entryY=1.000;entryDx=0;entryDy=0;">
      <mxGeometry width="50" height="50" relative="1" as="geometry">
        <Array as="points">
          <mxPoint x="577" y="3215" />
          <mxPoint x="569" y="3215" />
          <mxPoint x="569" y="2955" />
          <mxPoint x="-144" y="2955" />
        </Array>
      </mxGeometry>
    </mxCell>
    <mxCell id="edge23" edge="1" value="" parent="1" source="node39" target="node2" style="html=1;rounded=1;edgeStyle=orthogonalEdgeStyle;dashed=0;startArrow=none;endArrow=block;endSize=12;strokeColor=#000082;exitX=0.750;exitY=0.001;exitDx=0;exitDy=0;entryX=0.750;entryY=1.000;entryDx=0;entryDy=0;">
      <mxGeometry width="50" height="50" relative="1" as="geometry">
        <Array as="points">
          <mxPoint x="4341" y="3235" />
          <mxPoint x="4489" y="3235" />
          <mxPoint x="4489" y="2495" />
          <mxPoint x="4495" y="2495" />
        </Array>
      </mxGeometry>
    </mxCell>
    <mxCell id="edge44" edge="1" value="" parent="1" source="node39" target="node2" style="html=1;rounded=1;edgeStyle=orthogonalEdgeStyle;dashed=0;startArrow=circlePlus;startFill=0;endArrow=none;strokeColor=#820000;exitX=0.250;exitY=0.001;exitDx=0;exitDy=0;entryX=0.250;entryY=1.000;entryDx=0;entryDy=0;">
      <mxGeometry width="50" height="50" relative="1" as="geometry">
        <Array as="points">
          <mxPoint x="4277" y="3255" />
          <mxPoint x="4309" y="3255" />
          <mxPoint x="4309" y="2995" />
          <mxPoint x="4403" y="2995" />
        </Array>
      </mxGeometry>
    </mxCell>
    <mxCell id="edge106" edge="1" value="" parent="1" source="node33" target="node22" style="html=1;rounded=1;edgeStyle=orthogonalEdgeStyle;dashed=1;startArrow=none;endArrow=openThin;endSize=12;strokeColor=#595959;exitX=0.500;exitY=0.000;exitDx=0;exitDy=0;entryX=0.500;entryY=1.001;entryDx=0;entryDy=0;">
      <mxGeometry width="50" height="50" relative="1" as="geometry">
        <Array as="points" />
      </mxGeometry>
    </mxCell>
    <mxCell id="label638" parent="edge106" vertex="1" connectable="0" value="«create»" style="edgeLabel;resizable=0;html=1;align=left;verticalAlign=top;strokeColor=default;">
      <mxGeometry x="4841" y="4115" as="geometry" />
    </mxCell>
    <mxCell id="edge65" edge="1" value="" parent="1" source="node30" target="node21" style="html=1;rounded=1;edgeStyle=orthogonalEdgeStyle;dashed=1;startArrow=none;endArrow=openThin;endSize=12;strokeColor=#595959;exitX=0.500;exitY=0.000;exitDx=0;exitDy=0;entryX=0.500;entryY=1.001;entryDx=0;entryDy=0;">
      <mxGeometry width="50" height="50" relative="1" as="geometry">
        <Array as="points" />
      </mxGeometry>
    </mxCell>
    <mxCell id="label392" parent="edge65" vertex="1" connectable="0" value="«create»" style="edgeLabel;resizable=0;html=1;align=left;verticalAlign=top;strokeColor=default;">
      <mxGeometry x="4401" y="3765" as="geometry" />
    </mxCell>
    <mxCell id="edge99" edge="1" value="" parent="1" source="node36" target="node57" style="html=1;rounded=1;edgeStyle=orthogonalEdgeStyle;dashed=1;startArrow=none;endArrow=openThin;endSize=12;strokeColor=#595959;exitX=0.500;exitY=0.000;exitDx=0;exitDy=0;entryX=0.500;entryY=1.001;entryDx=0;entryDy=0;">
      <mxGeometry width="50" height="50" relative="1" as="geometry">
        <Array as="points">
          <mxPoint x="2449" y="2735" />
          <mxPoint x="2249" y="2735" />
        </Array>
      </mxGeometry>
    </mxCell>
    <mxCell id="label596" parent="edge99" vertex="1" connectable="0" value="«create»" style="edgeLabel;resizable=0;html=1;align=left;verticalAlign=top;strokeColor=default;">
      <mxGeometry x="2325" y="2716" as="geometry" />
    </mxCell>
    <mxCell id="edge31" edge="1" value="" parent="1" source="node36" target="node58" style="html=1;rounded=1;edgeStyle=orthogonalEdgeStyle;dashed=1;startArrow=none;endArrow=openThin;endSize=12;strokeColor=#595959;exitX=0.500;exitY=0.000;exitDx=0;exitDy=0;entryX=0.500;entryY=1.000;entryDx=0;entryDy=0;">
      <mxGeometry width="50" height="50" relative="1" as="geometry">
        <Array as="points">
          <mxPoint x="2449" y="2735" />
          <mxPoint x="2249" y="2735" />
          <mxPoint x="2249" y="2235" />
          <mxPoint x="2049" y="2235" />
        </Array>
      </mxGeometry>
    </mxCell>
    <mxCell id="label188" parent="edge31" vertex="1" connectable="0" value="«create»" style="edgeLabel;resizable=0;html=1;align=left;verticalAlign=top;strokeColor=default;">
      <mxGeometry x="2201" y="2476" as="geometry" />
    </mxCell>
    <mxCell id="edge92" edge="1" value="" parent="1" source="node5" target="node72" style="html=1;rounded=1;edgeStyle=orthogonalEdgeStyle;dashed=1;startArrow=none;endArrow=openThin;endSize=12;strokeColor=#595959;exitX=0.500;exitY=0.001;exitDx=0;exitDy=0;entryX=0.500;entryY=1.001;entryDx=0;entryDy=0;">
      <mxGeometry width="50" height="50" relative="1" as="geometry">
        <Array as="points" />
      </mxGeometry>
    </mxCell>
    <mxCell id="label554" parent="edge92" vertex="1" connectable="0" value="«create»" style="edgeLabel;resizable=0;html=1;align=left;verticalAlign=top;strokeColor=default;">
      <mxGeometry x="4861" y="2425" as="geometry" />
    </mxCell>
    <mxCell id="edge27" edge="1" value="" parent="1" source="node72" target="node44" style="html=1;rounded=1;edgeStyle=orthogonalEdgeStyle;dashed=0;startArrow=circlePlus;startFill=0;endArrow=none;strokeColor=#820000;exitX=0.750;exitY=0.001;exitDx=0;exitDy=0;entryX=0.750;entryY=1.000;entryDx=0;entryDy=0;">
      <mxGeometry width="50" height="50" relative="1" as="geometry">
        <Array as="points">
          <mxPoint x="4967" y="1415" />
          <mxPoint x="4969" y="1415" />
          <mxPoint x="4969" y="955" />
          <mxPoint x="4962" y="955" />
        </Array>
      </mxGeometry>
    </mxCell>
    <mxCell id="edge37" edge="1" value="" parent="1" source="node72" target="node44" style="html=1;rounded=1;edgeStyle=orthogonalEdgeStyle;dashed=0;startArrow=none;endArrow=block;endSize=12;strokeColor=#000082;exitX=0.250;exitY=0.001;exitDx=0;exitDy=0;entryX=0.250;entryY=1.000;entryDx=0;entryDy=0;">
      <mxGeometry width="50" height="50" relative="1" as="geometry">
        <Array as="points">
          <mxPoint x="4851" y="1435" />
          <mxPoint x="4849" y="1435" />
          <mxPoint x="4849" y="955" />
          <mxPoint x="4857" y="955" />
        </Array>
      </mxGeometry>
    </mxCell>
    <mxCell id="edge0" edge="1" value="" parent="1" source="node22" target="node2" style="html=1;rounded=1;edgeStyle=orthogonalEdgeStyle;dashed=0;startArrow=circlePlus;startFill=0;endArrow=none;strokeColor=#820000;exitX=0.250;exitY=0.001;exitDx=0;exitDy=0;entryX=0.250;entryY=1.000;entryDx=0;entryDy=0;">
      <mxGeometry width="50" height="50" relative="1" as="geometry">
        <Array as="points">
          <mxPoint x="4850" y="3255" />
          <mxPoint x="4309" y="3255" />
          <mxPoint x="4309" y="2995" />
          <mxPoint x="4403" y="2995" />
        </Array>
      </mxGeometry>
    </mxCell>
    <mxCell id="edge40" edge="1" value="" parent="1" source="node22" target="node2" style="html=1;rounded=1;edgeStyle=orthogonalEdgeStyle;dashed=0;startArrow=none;endArrow=block;endSize=12;strokeColor=#000082;exitX=0.750;exitY=0.001;exitDx=0;exitDy=0;entryX=0.750;entryY=1.000;entryDx=0;entryDy=0;">
      <mxGeometry width="50" height="50" relative="1" as="geometry">
        <Array as="points">
          <mxPoint x="4929" y="3235" />
          <mxPoint x="4489" y="3235" />
          <mxPoint x="4489" y="2495" />
          <mxPoint x="4495" y="2495" />
        </Array>
      </mxGeometry>
    </mxCell>
    <mxCell id="edge69" edge="1" value="" parent="1" source="node21" target="node2" style="html=1;rounded=1;edgeStyle=orthogonalEdgeStyle;dashed=0;startArrow=none;endArrow=block;endSize=12;strokeColor=#000082;exitX=0.750;exitY=0.001;exitDx=0;exitDy=0;entryX=0.750;entryY=1.000;entryDx=0;entryDy=0;">
      <mxGeometry width="50" height="50" relative="1" as="geometry">
        <Array as="points">
          <mxPoint x="4494" y="3235" />
          <mxPoint x="4489" y="3235" />
          <mxPoint x="4489" y="2495" />
          <mxPoint x="4495" y="2495" />
        </Array>
      </mxGeometry>
    </mxCell>
    <mxCell id="edge103" edge="1" value="" parent="1" source="node21" target="node2" style="html=1;rounded=1;edgeStyle=orthogonalEdgeStyle;dashed=0;startArrow=circlePlus;startFill=0;endArrow=none;strokeColor=#820000;exitX=0.250;exitY=0.001;exitDx=0;exitDy=0;entryX=0.250;entryY=1.000;entryDx=0;entryDy=0;">
      <mxGeometry width="50" height="50" relative="1" as="geometry">
        <Array as="points">
          <mxPoint x="4404" y="3255" />
          <mxPoint x="4309" y="3255" />
          <mxPoint x="4309" y="2995" />
          <mxPoint x="4403" y="2995" />
        </Array>
      </mxGeometry>
    </mxCell>
    <mxCell id="edge104" edge="1" value="" parent="1" source="node53" target="node4" style="html=1;rounded=1;edgeStyle=orthogonalEdgeStyle;dashed=0;startArrow=diamondThinstartSize=12;endArrow=openThin;endSize=12;strokeColor=#595959;exitX=0.500;exitY=0.000;exitDx=0;exitDy=0;entryX=0.500;entryY=1.000;entryDx=0;entryDy=0;">
      <mxGeometry width="50" height="50" relative="1" as="geometry">
        <Array as="points">
          <mxPoint x="6049" y="2275" />
          <mxPoint x="2489" y="2275" />
          <mxPoint x="2489" y="2195" />
          <mxPoint x="2709" y="2195" />
        </Array>
      </mxGeometry>
    </mxCell>
    <mxCell id="label624" parent="edge104" vertex="1" connectable="0" value="1" style="edgeLabel;resizable=0;html=1;align=left;verticalAlign=top;strokeColor=default;">
      <mxGeometry x="6038" y="2673" as="geometry" />
    </mxCell>
    <mxCell id="label628" parent="edge104" vertex="1" connectable="0" value="1" style="edgeLabel;resizable=0;html=1;align=left;verticalAlign=top;strokeColor=default;">
      <mxGeometry x="2478" y="2246" as="geometry" />
    </mxCell>
    <mxCell id="label629" parent="edge104" vertex="1" connectable="0" value="jwtUtil" style="edgeLabel;resizable=0;html=1;align=left;verticalAlign=top;strokeColor=default;">
      <mxGeometry x="2471" y="2275" as="geometry" />
    </mxCell>
    <mxCell id="edge107" edge="1" value="" parent="1" source="node53" target="node50" style="html=1;rounded=1;edgeStyle=orthogonalEdgeStyle;dashed=0;startArrow=diamondThinstartSize=12;endArrow=openThin;endSize=12;strokeColor=#595959;exitX=0.500;exitY=0.001;exitDx=0;exitDy=0;entryX=0.500;entryY=0.001;entryDx=0;entryDy=0;">
      <mxGeometry width="50" height="50" relative="1" as="geometry">
        <Array as="points">
          <mxPoint x="6049" y="2775" />
          <mxPoint x="6349" y="2775" />
          <mxPoint x="6349" y="1975" />
          <mxPoint x="6029" y="1975" />
        </Array>
      </mxGeometry>
    </mxCell>
    <mxCell id="label642" parent="edge107" vertex="1" connectable="0" value="1" style="edgeLabel;resizable=0;html=1;align=left;verticalAlign=top;strokeColor=default;">
      <mxGeometry x="6269" y="2758" as="geometry" />
    </mxCell>
    <mxCell id="label646" parent="edge107" vertex="1" connectable="0" value="1" style="edgeLabel;resizable=0;html=1;align=left;verticalAlign=top;strokeColor=default;">
      <mxGeometry x="6104" y="1958" as="geometry" />
    </mxCell>
    <mxCell id="label647" parent="edge107" vertex="1" connectable="0" value="userDetailsService" style="edgeLabel;resizable=0;html=1;align=left;verticalAlign=top;strokeColor=default;">
      <mxGeometry x="6069" y="1977" as="geometry" />
    </mxCell>
    <mxCell id="edge67" edge="1" value="" parent="1" source="node69" target="node13" style="html=1;rounded=1;edgeStyle=orthogonalEdgeStyle;dashed=0;startArrow=diamondThinstartSize=12;endArrow=openThin;endSize=12;strokeColor=#595959;exitX=0.500;exitY=0.000;exitDx=0;exitDy=0;entryX=0.750;entryY=1.000;entryDx=0;entryDy=0;">
      <mxGeometry width="50" height="50" relative="1" as="geometry">
        <Array as="points">
          <mxPoint x="4169" y="1375" />
          <mxPoint x="4204" y="1375" />
        </Array>
      </mxGeometry>
    </mxCell>
    <mxCell id="label402" parent="edge67" vertex="1" connectable="0" value="1" style="edgeLabel;resizable=0;html=1;align=left;verticalAlign=top;strokeColor=default;">
      <mxGeometry x="4158" y="1366" as="geometry" />
    </mxCell>
    <mxCell id="label406" parent="edge67" vertex="1" connectable="0" value="1" style="edgeLabel;resizable=0;html=1;align=left;verticalAlign=top;strokeColor=default;">
      <mxGeometry x="4181" y="1358" as="geometry" />
    </mxCell>
    <mxCell id="label407" parent="edge67" vertex="1" connectable="0" value="author" style="edgeLabel;resizable=0;html=1;align=left;verticalAlign=top;strokeColor=default;">
      <mxGeometry x="4204" y="1324" as="geometry" />
    </mxCell>
    <mxCell id="edge33" edge="1" value="" parent="1" source="node19" target="node39" style="html=1;rounded=1;edgeStyle=orthogonalEdgeStyle;dashed=1;startArrow=none;endArrow=openThin;endSize=12;strokeColor=#595959;exitX=0.250;exitY=0.000;exitDx=0;exitDy=0;entryX=0.500;entryY=1.001;entryDx=0;entryDy=0;">
      <mxGeometry width="50" height="50" relative="1" as="geometry">
        <Array as="points">
          <mxPoint x="1696" y="4015" />
          <mxPoint x="1049" y="4015" />
          <mxPoint x="1049" y="3975" />
          <mxPoint x="4209" y="3975" />
          <mxPoint x="4209" y="3735" />
          <mxPoint x="4309" y="3735" />
        </Array>
      </mxGeometry>
    </mxCell>
    <mxCell id="label200" parent="edge33" vertex="1" connectable="0" value="«create»" style="edgeLabel;resizable=0;html=1;align=left;verticalAlign=top;strokeColor=default;">
      <mxGeometry x="2605" y="3956" as="geometry" />
    </mxCell>
    <mxCell id="edge48" edge="1" value="" parent="1" source="node19" target="node31" style="html=1;rounded=1;edgeStyle=orthogonalEdgeStyle;dashed=1;startArrow=none;endArrow=openThin;endSize=12;strokeColor=#595959;exitX=0.250;exitY=0.000;exitDx=0;exitDy=0;entryX=0.500;entryY=1.001;entryDx=0;entryDy=0;">
      <mxGeometry width="50" height="50" relative="1" as="geometry">
        <Array as="points">
          <mxPoint x="1696" y="4015" />
          <mxPoint x="1049" y="4015" />
          <mxPoint x="1049" y="3955" />
          <mxPoint x="609" y="3955" />
        </Array>
      </mxGeometry>
    </mxCell>
    <mxCell id="label290" parent="edge48" vertex="1" connectable="0" value="«create»" style="edgeLabel;resizable=0;html=1;align=left;verticalAlign=top;strokeColor=default;">
      <mxGeometry x="695" y="3936" as="geometry" />
    </mxCell>
    <mxCell id="edge4" edge="1" value="" parent="1" source="node19" target="node4" style="html=1;rounded=1;edgeStyle=orthogonalEdgeStyle;dashed=0;startArrow=diamondThinstartSize=12;endArrow=openThin;endSize=12;strokeColor=#595959;exitX=0.750;exitY=0.000;exitDx=0;exitDy=0;entryX=0.500;entryY=1.000;entryDx=0;entryDy=0;">
      <mxGeometry width="50" height="50" relative="1" as="geometry">
        <Array as="points">
          <mxPoint x="2082" y="4015" />
          <mxPoint x="1889" y="4015" />
          <mxPoint x="1889" y="3995" />
          <mxPoint x="1849" y="3995" />
          <mxPoint x="1849" y="3115" />
          <mxPoint x="2269" y="3115" />
          <mxPoint x="2269" y="2215" />
          <mxPoint x="2489" y="2215" />
          <mxPoint x="2489" y="2195" />
          <mxPoint x="2709" y="2195" />
        </Array>
      </mxGeometry>
    </mxCell>
    <mxCell id="label24" parent="edge4" vertex="1" connectable="0" value="1" style="edgeLabel;resizable=0;html=1;align=left;verticalAlign=top;strokeColor=default;">
      <mxGeometry x="1980" y="3998" as="geometry" />
    </mxCell>
    <mxCell id="label28" parent="edge4" vertex="1" connectable="0" value="1" style="edgeLabel;resizable=0;html=1;align=left;verticalAlign=top;strokeColor=default;">
      <mxGeometry x="2374" y="2198" as="geometry" />
    </mxCell>
    <mxCell id="label29" parent="edge4" vertex="1" connectable="0" value="jwtUtil" style="edgeLabel;resizable=0;html=1;align=left;verticalAlign=top;strokeColor=default;">
      <mxGeometry x="2361" y="2215" as="geometry" />
    </mxCell>
    <mxCell id="edge73" edge="1" value="" parent="1" source="node19" target="node11" style="html=1;rounded=1;edgeStyle=orthogonalEdgeStyle;dashed=0;startArrow=diamondThinstartSize=12;endArrow=openThin;endSize=12;strokeColor=#595959;exitX=0.750;exitY=0.000;exitDx=0;exitDy=0;entryX=0.750;entryY=0.000;entryDx=0;entryDy=0;">
      <mxGeometry width="50" height="50" relative="1" as="geometry">
        <Array as="points">
          <mxPoint x="2082" y="4015" />
          <mxPoint x="1889" y="4015" />
          <mxPoint x="1889" y="3395" />
          <mxPoint x="2446" y="3395" />
        </Array>
      </mxGeometry>
    </mxCell>
    <mxCell id="label438" parent="edge73" vertex="1" connectable="0" value="1" style="edgeLabel;resizable=0;html=1;align=left;verticalAlign=top;strokeColor=default;">
      <mxGeometry x="2028" y="3998" as="geometry" />
    </mxCell>
    <mxCell id="label442" parent="edge73" vertex="1" connectable="0" value="1" style="edgeLabel;resizable=0;html=1;align=left;verticalAlign=top;strokeColor=default;">
      <mxGeometry x="1878" y="3541" as="geometry" />
    </mxCell>
    <mxCell id="label443" parent="edge73" vertex="1" connectable="0" value="newsService" style="edgeLabel;resizable=0;html=1;align=left;verticalAlign=top;strokeColor=default;">
      <mxGeometry x="1993" y="3395" as="geometry" />
    </mxCell>
    <mxCell id="edge24" edge="1" value="" parent="1" source="node19" target="node43" style="html=1;rounded=1;edgeStyle=orthogonalEdgeStyle;dashed=1;startArrow=none;endArrow=openThin;endSize=12;strokeColor=#595959;exitX=0.250;exitY=0.000;exitDx=0;exitDy=0;entryX=0.500;entryY=1.000;entryDx=0;entryDy=0;">
      <mxGeometry width="50" height="50" relative="1" as="geometry">
        <Array as="points">
          <mxPoint x="1696" y="4015" />
          <mxPoint x="1049" y="4015" />
          <mxPoint x="1049" y="3955" />
          <mxPoint x="4169" y="3955" />
        </Array>
      </mxGeometry>
    </mxCell>
    <mxCell id="label146" parent="edge24" vertex="1" connectable="0" value="«create»" style="edgeLabel;resizable=0;html=1;align=left;verticalAlign=top;strokeColor=default;">
      <mxGeometry x="1001" y="3946" as="geometry" />
    </mxCell>
    <mxCell id="edge108" edge="1" value="" parent="1" source="node19" target="node60" style="html=1;rounded=1;edgeStyle=orthogonalEdgeStyle;dashed=1;startArrow=none;endArrow=openThin;endSize=12;strokeColor=#595959;exitX=0.250;exitY=0.000;exitDx=0;exitDy=0;entryX=0.500;entryY=1.000;entryDx=0;entryDy=0;">
      <mxGeometry width="50" height="50" relative="1" as="geometry">
        <Array as="points">
          <mxPoint x="1696" y="4015" />
          <mxPoint x="1049" y="4015" />
        </Array>
      </mxGeometry>
    </mxCell>
    <mxCell id="label650" parent="edge108" vertex="1" connectable="0" value="«create»" style="edgeLabel;resizable=0;html=1;align=left;verticalAlign=top;strokeColor=default;">
      <mxGeometry x="1348" y="3996" as="geometry" />
    </mxCell>
    <mxCell id="edge15" edge="1" value="" parent="1" source="node19" target="node62" style="html=1;rounded=1;edgeStyle=orthogonalEdgeStyle;dashed=1;startArrow=none;endArrow=openThin;endSize=12;strokeColor=#595959;exitX=0.250;exitY=0.000;exitDx=0;exitDy=0;entryX=0.500;entryY=1.000;entryDx=0;entryDy=0;">
      <mxGeometry width="50" height="50" relative="1" as="geometry">
        <Array as="points">
          <mxPoint x="1696" y="4015" />
          <mxPoint x="1049" y="4015" />
          <mxPoint x="1049" y="3955" />
          <mxPoint x="789" y="3955" />
        </Array>
      </mxGeometry>
    </mxCell>
    <mxCell id="label92" parent="edge15" vertex="1" connectable="0" value="«create»" style="edgeLabel;resizable=0;html=1;align=left;verticalAlign=top;strokeColor=default;">
      <mxGeometry x="1001" y="3976" as="geometry" />
    </mxCell>
    <mxCell id="edge29" edge="1" value="" parent="1" source="node58" target="node70" style="html=1;rounded=1;edgeStyle=orthogonalEdgeStyle;dashed=0;startArrow=diamondThinstartSize=12;endArrow=openThin;endSize=12;strokeColor=#595959;exitX=0.500;exitY=0.000;exitDx=0;exitDy=0;entryX=0.500;entryY=0.000;entryDx=0;entryDy=0;">
      <mxGeometry width="50" height="50" relative="1" as="geometry">
        <Array as="points">
          <mxPoint x="2049" y="1535" />
          <mxPoint x="1549" y="1535" />
          <mxPoint x="1549" y="155" />
          <mxPoint x="6849" y="155" />
        </Array>
      </mxGeometry>
    </mxCell>
    <mxCell id="label174" parent="edge29" vertex="1" connectable="0" value="1" style="edgeLabel;resizable=0;html=1;align=left;verticalAlign=top;strokeColor=default;">
      <mxGeometry x="2038" y="1771" as="geometry" />
    </mxCell>
    <mxCell id="label178" parent="edge29" vertex="1" connectable="0" value="1" style="edgeLabel;resizable=0;html=1;align=left;verticalAlign=top;strokeColor=default;">
      <mxGeometry x="6838" y="465" as="geometry" />
    </mxCell>
    <mxCell id="label179" parent="edge29" vertex="1" connectable="0" value="author" style="edgeLabel;resizable=0;html=1;align=left;verticalAlign=top;strokeColor=default;">
      <mxGeometry x="6849" y="769" as="geometry" />
    </mxCell>
    <mxCell id="edge95" edge="1" value="" parent="1" source="node65" target="node58" style="html=1;rounded=1;edgeStyle=orthogonalEdgeStyle;dashed=1;startArrow=none;endArrow=openThin;endSize=12;strokeColor=#595959;exitX=0.500;exitY=0.000;exitDx=0;exitDy=0;entryX=0.500;entryY=1.000;entryDx=0;entryDy=0;">
      <mxGeometry width="50" height="50" relative="1" as="geometry">
        <Array as="points">
          <mxPoint x="1869" y="2315" />
          <mxPoint x="2049" y="2315" />
        </Array>
      </mxGeometry>
    </mxCell>
    <mxCell id="label572" parent="edge95" vertex="1" connectable="0" value="«create»" style="edgeLabel;resizable=0;html=1;align=left;verticalAlign=top;strokeColor=default;">
      <mxGeometry x="1935" y="2296" as="geometry" />
    </mxCell>
    <mxCell id="edge60" edge="1" value="" parent="1" source="node34" target="node1" style="html=1;rounded=1;edgeStyle=orthogonalEdgeStyle;dashed=0;startArrow=diamondThinstartSize=12;endArrow=openThin;endSize=12;strokeColor=#595959;exitX=0.500;exitY=0.000;exitDx=0;exitDy=0;entryX=0.750;entryY=1.000;entryDx=0;entryDy=0;">
      <mxGeometry width="50" height="50" relative="1" as="geometry">
        <Array as="points">
          <mxPoint x="6649" y="1095" />
          <mxPoint x="6749" y="1095" />
        </Array>
      </mxGeometry>
    </mxCell>
    <mxCell id="label360" parent="edge60" vertex="1" connectable="0" value="1" style="edgeLabel;resizable=0;html=1;align=left;verticalAlign=top;strokeColor=default;">
      <mxGeometry x="6638" y="1839" as="geometry" />
    </mxCell>
    <mxCell id="label364" parent="edge60" vertex="1" connectable="0" value="*" style="edgeLabel;resizable=0;html=1;align=left;verticalAlign=top;strokeColor=default;">
      <mxGeometry x="6740" y="519" as="geometry" />
    </mxCell>
    <mxCell id="label365" parent="edge60" vertex="1" connectable="0" value="entities" style="edgeLabel;resizable=0;html=1;align=left;verticalAlign=top;strokeColor=default;">
      <mxGeometry x="6749" y="519" as="geometry" />
    </mxCell>
    <mxCell id="edge10" edge="1" value="" parent="1" source="node34" target="node28" style="html=1;rounded=1;edgeStyle=orthogonalEdgeStyle;dashed=0;startArrow=diamondThinstartSize=12;endArrow=openThin;endSize=12;strokeColor=#595959;exitX=0.500;exitY=0.000;exitDx=0;exitDy=0;entryX=0.750;entryY=1.000;entryDx=0;entryDy=0;">
      <mxGeometry width="50" height="50" relative="1" as="geometry">
        <Array as="points">
          <mxPoint x="6649" y="1095" />
          <mxPoint x="6321" y="1095" />
        </Array>
      </mxGeometry>
    </mxCell>
    <mxCell id="label60" parent="edge10" vertex="1" connectable="0" value="1" style="edgeLabel;resizable=0;html=1;align=left;verticalAlign=top;strokeColor=default;">
      <mxGeometry x="6638" y="1661" as="geometry" />
    </mxCell>
    <mxCell id="label64" parent="edge10" vertex="1" connectable="0" value="*" style="edgeLabel;resizable=0;html=1;align=left;verticalAlign=top;strokeColor=default;">
      <mxGeometry x="6312" y="534" as="geometry" />
    </mxCell>
    <mxCell id="label65" parent="edge10" vertex="1" connectable="0" value="relationships" style="edgeLabel;resizable=0;html=1;align=left;verticalAlign=top;strokeColor=default;">
      <mxGeometry x="6321" y="534" as="geometry" />
    </mxCell>
    <mxCell id="edge45" edge="1" value="" parent="1" source="node11" target="node17" style="html=1;rounded=1;edgeStyle=orthogonalEdgeStyle;dashed=1;startArrow=none;endArrow=openThin;endSize=12;strokeColor=#595959;exitX=0.250;exitY=0.000;exitDx=0;exitDy=0;entryX=0.500;entryY=1.001;entryDx=0;entryDy=0;">
      <mxGeometry width="50" height="50" relative="1" as="geometry">
        <Array as="points">
          <mxPoint x="2093" y="3415" />
          <mxPoint x="2089" y="3415" />
          <mxPoint x="2089" y="3095" />
          <mxPoint x="3649" y="3095" />
          <mxPoint x="3649" y="2795" />
          <mxPoint x="3349" y="2795" />
          <mxPoint x="3349" y="975" />
          <mxPoint x="3309" y="975" />
        </Array>
      </mxGeometry>
    </mxCell>
    <mxCell id="label272" parent="edge45" vertex="1" connectable="0" value="«create»" style="edgeLabel;resizable=0;html=1;align=left;verticalAlign=top;strokeColor=default;">
      <mxGeometry x="3601" y="2936" as="geometry" />
    </mxCell>
    <mxCell id="edge35" edge="1" value="" parent="1" source="node11" target="node42" style="html=1;rounded=1;edgeStyle=orthogonalEdgeStyle;dashed=1;startArrow=none;endArrow=openThin;endSize=12;strokeColor=#595959;exitX=0.250;exitY=0.000;exitDx=0;exitDy=0;entryX=0.500;entryY=1.001;entryDx=0;entryDy=0;">
      <mxGeometry width="50" height="50" relative="1" as="geometry">
        <Array as="points">
          <mxPoint x="2093" y="3415" />
          <mxPoint x="2089" y="3415" />
          <mxPoint x="2089" y="3095" />
          <mxPoint x="969" y="3095" />
        </Array>
      </mxGeometry>
    </mxCell>
    <mxCell id="label212" parent="edge35" vertex="1" connectable="0" value="«create»" style="edgeLabel;resizable=0;html=1;align=left;verticalAlign=top;strokeColor=default;">
      <mxGeometry x="2041" y="3166" as="geometry" />
    </mxCell>
    <mxCell id="edge91" edge="1" value="" parent="1" source="node11" target="node36" style="html=1;rounded=1;edgeStyle=orthogonalEdgeStyle;dashed=0;startArrow=diamondThinstartSize=12;endArrow=openThin;endSize=12;strokeColor=#595959;exitX=0.750;exitY=0.000;exitDx=0;exitDy=0;entryX=0.500;entryY=1.000;entryDx=0;entryDy=0;">
      <mxGeometry width="50" height="50" relative="1" as="geometry">
        <Array as="points">
          <mxPoint x="2446" y="3415" />
          <mxPoint x="2449" y="3415" />
        </Array>
      </mxGeometry>
    </mxCell>
    <mxCell id="label546" parent="edge91" vertex="1" connectable="0" value="1" style="edgeLabel;resizable=0;html=1;align=left;verticalAlign=top;strokeColor=default;">
      <mxGeometry x="2438" y="3049" as="geometry" />
    </mxCell>
    <mxCell id="label550" parent="edge91" vertex="1" connectable="0" value="1" style="edgeLabel;resizable=0;html=1;align=left;verticalAlign=top;strokeColor=default;">
      <mxGeometry x="2438" y="2943" as="geometry" />
    </mxCell>
    <mxCell id="label551" parent="edge91" vertex="1" connectable="0" value="htmlSanitizer" style="edgeLabel;resizable=0;html=1;align=left;verticalAlign=top;strokeColor=default;">
      <mxGeometry x="2449" y="2943" as="geometry" />
    </mxCell>
    <mxCell id="edge109" edge="1" value="" parent="1" source="node11" target="node24" style="html=1;rounded=1;edgeStyle=orthogonalEdgeStyle;dashed=0;startArrow=diamondThinstartSize=12;endArrow=openThin;endSize=12;strokeColor=#595959;exitX=0.750;exitY=0.000;exitDx=0;exitDy=0;entryX=0.500;entryY=1.000;entryDx=0;entryDy=0;">
      <mxGeometry width="50" height="50" relative="1" as="geometry">
        <Array as="points">
          <mxPoint x="2446" y="3415" />
          <mxPoint x="2449" y="3415" />
          <mxPoint x="2449" y="3175" />
          <mxPoint x="2769" y="3175" />
        </Array>
      </mxGeometry>
    </mxCell>
    <mxCell id="label654" parent="edge109" vertex="1" connectable="0" value="1" style="edgeLabel;resizable=0;html=1;align=left;verticalAlign=top;strokeColor=default;">
      <mxGeometry x="2438" y="3346" as="geometry" />
    </mxCell>
    <mxCell id="label658" parent="edge109" vertex="1" connectable="0" value="1" style="edgeLabel;resizable=0;html=1;align=left;verticalAlign=top;strokeColor=default;">
      <mxGeometry x="2758" y="2534" as="geometry" />
    </mxCell>
    <mxCell id="label659" parent="edge109" vertex="1" connectable="0" value="neo4jGraphService" style="edgeLabel;resizable=0;html=1;align=left;verticalAlign=top;strokeColor=default;">
      <mxGeometry x="2769" y="2534" as="geometry" />
    </mxCell>
    <mxCell id="edge7" edge="1" value="" parent="1" source="node11" target="node69" style="html=1;rounded=1;edgeStyle=orthogonalEdgeStyle;dashed=1;startArrow=none;endArrow=openThin;endSize=12;strokeColor=#595959;exitX=0.250;exitY=0.000;exitDx=0;exitDy=0;entryX=0.500;entryY=1.000;entryDx=0;entryDy=0;">
      <mxGeometry width="50" height="50" relative="1" as="geometry">
        <Array as="points">
          <mxPoint x="2093" y="3415" />
          <mxPoint x="2089" y="3415" />
          <mxPoint x="2089" y="3095" />
          <mxPoint x="3689" y="3095" />
          <mxPoint x="3689" y="2715" />
          <mxPoint x="4169" y="2715" />
        </Array>
      </mxGeometry>
    </mxCell>
    <mxCell id="label44" parent="edge7" vertex="1" connectable="0" value="«create»" style="edgeLabel;resizable=0;html=1;align=left;verticalAlign=top;strokeColor=default;">
      <mxGeometry x="2865" y="3076" as="geometry" />
    </mxCell>
    <mxCell id="edge51" edge="1" value="" parent="1" source="node11" target="node29" style="html=1;rounded=1;edgeStyle=orthogonalEdgeStyle;dashed=0;startArrow=diamondThinstartSize=12;endArrow=openThin;endSize=12;strokeColor=#595959;exitX=0.750;exitY=0.000;exitDx=0;exitDy=0;entryX=0.500;entryY=1.000;entryDx=0;entryDy=0;">
      <mxGeometry width="50" height="50" relative="1" as="geometry">
        <Array as="points">
          <mxPoint x="2446" y="3415" />
          <mxPoint x="2449" y="3415" />
          <mxPoint x="2449" y="3175" />
          <mxPoint x="4049" y="3175" />
        </Array>
      </mxGeometry>
    </mxCell>
    <mxCell id="label306" parent="edge51" vertex="1" connectable="0" value="1" style="edgeLabel;resizable=0;html=1;align=left;verticalAlign=top;strokeColor=default;">
      <mxGeometry x="2844" y="3158" as="geometry" />
    </mxCell>
    <mxCell id="label310" parent="edge51" vertex="1" connectable="0" value="1" style="edgeLabel;resizable=0;html=1;align=left;verticalAlign=top;strokeColor=default;">
      <mxGeometry x="4038" y="2973" as="geometry" />
    </mxCell>
    <mxCell id="label311" parent="edge51" vertex="1" connectable="0" value="newsRepository" style="edgeLabel;resizable=0;html=1;align=left;verticalAlign=top;strokeColor=default;">
      <mxGeometry x="4049" y="2973" as="geometry" />
    </mxCell>
    <mxCell id="edge102" edge="1" value="" parent="1" source="node11" target="node25" style="html=1;rounded=1;edgeStyle=orthogonalEdgeStyle;dashed=1;startArrow=none;endArrow=openThin;endSize=12;strokeColor=#595959;exitX=0.250;exitY=0.000;exitDx=0;exitDy=0;entryX=0.500;entryY=1.001;entryDx=0;entryDy=0;">
      <mxGeometry width="50" height="50" relative="1" as="geometry">
        <Array as="points">
          <mxPoint x="2093" y="3415" />
          <mxPoint x="2089" y="3415" />
          <mxPoint x="2089" y="3095" />
          <mxPoint x="2069" y="3095" />
        </Array>
      </mxGeometry>
    </mxCell>
    <mxCell id="label614" parent="edge102" vertex="1" connectable="0" value="«create»" style="edgeLabel;resizable=0;html=1;align=left;verticalAlign=top;strokeColor=default;">
      <mxGeometry x="2041" y="3246" as="geometry" />
    </mxCell>
    <mxCell id="edge1" edge="1" value="" parent="1" source="node11" target="node16" style="html=1;rounded=1;edgeStyle=orthogonalEdgeStyle;dashed=0;startArrow=diamondThinstartSize=12;endArrow=openThin;endSize=12;strokeColor=#595959;exitX=0.750;exitY=0.000;exitDx=0;exitDy=0;entryX=0.500;entryY=1.000;entryDx=0;entryDy=0;">
      <mxGeometry width="50" height="50" relative="1" as="geometry">
        <Array as="points">
          <mxPoint x="2446" y="3415" />
          <mxPoint x="2449" y="3415" />
          <mxPoint x="2449" y="3175" />
          <mxPoint x="6709" y="3175" />
        </Array>
      </mxGeometry>
    </mxCell>
    <mxCell id="label6" parent="edge1" vertex="1" connectable="0" value="1" style="edgeLabel;resizable=0;html=1;align=left;verticalAlign=top;strokeColor=default;">
      <mxGeometry x="2438" y="3286" as="geometry" />
    </mxCell>
    <mxCell id="label10" parent="edge1" vertex="1" connectable="0" value="1" style="edgeLabel;resizable=0;html=1;align=left;verticalAlign=top;strokeColor=default;">
      <mxGeometry x="6704" y="3158" as="geometry" />
    </mxCell>
    <mxCell id="label11" parent="edge1" vertex="1" connectable="0" value="stanfordNLPProcessor" style="edgeLabel;resizable=0;html=1;align=left;verticalAlign=top;strokeColor=default;">
      <mxGeometry x="6648" y="3175" as="geometry" />
    </mxCell>
    <mxCell id="edge52" edge="1" value="" parent="1" source="node11" target="node15" style="html=1;rounded=1;edgeStyle=orthogonalEdgeStyle;dashed=1;startArrow=none;endArrow=openThin;endSize=12;strokeColor=#595959;exitX=0.250;exitY=0.000;exitDx=0;exitDy=0;entryX=0.500;entryY=1.001;entryDx=0;entryDy=0;">
      <mxGeometry width="50" height="50" relative="1" as="geometry">
        <Array as="points">
          <mxPoint x="2093" y="3415" />
          <mxPoint x="2089" y="3415" />
          <mxPoint x="2089" y="3095" />
          <mxPoint x="789" y="3095" />
          <mxPoint x="789" y="2195" />
          <mxPoint x="349" y="2195" />
          <mxPoint x="349" y="2115" />
          <mxPoint x="149" y="2115" />
        </Array>
      </mxGeometry>
    </mxCell>
    <mxCell id="label314" parent="edge52" vertex="1" connectable="0" value="«create»" style="edgeLabel;resizable=0;html=1;align=left;verticalAlign=top;strokeColor=default;">
      <mxGeometry x="741" y="2636" as="geometry" />
    </mxCell>
    <mxCell id="edge85" edge="1" value="" parent="1" source="node11" target="node6" style="html=1;rounded=1;edgeStyle=orthogonalEdgeStyle;dashed=0;startArrow=diamondThinstartSize=12;endArrow=openThin;endSize=12;strokeColor=#595959;exitX=0.750;exitY=0.000;exitDx=0;exitDy=0;entryX=0.500;entryY=1.000;entryDx=0;entryDy=0;">
      <mxGeometry width="50" height="50" relative="1" as="geometry">
        <Array as="points">
          <mxPoint x="2446" y="3415" />
          <mxPoint x="2449" y="3415" />
          <mxPoint x="2449" y="3175" />
          <mxPoint x="6389" y="3175" />
          <mxPoint x="6389" y="1455" />
          <mxPoint x="6029" y="1455" />
        </Array>
      </mxGeometry>
    </mxCell>
    <mxCell id="label510" parent="edge85" vertex="1" connectable="0" value="1" style="edgeLabel;resizable=0;html=1;align=left;verticalAlign=top;strokeColor=default;">
      <mxGeometry x="2438" y="3226" as="geometry" />
    </mxCell>
    <mxCell id="label514" parent="edge85" vertex="1" connectable="0" value="1" style="edgeLabel;resizable=0;html=1;align=left;verticalAlign=top;strokeColor=default;">
      <mxGeometry x="6114" y="1438" as="geometry" />
    </mxCell>
    <mxCell id="label515" parent="edge85" vertex="1" connectable="0" value="userRepository" style="edgeLabel;resizable=0;html=1;align=left;verticalAlign=top;strokeColor=default;">
      <mxGeometry x="6029" y="1085" as="geometry" />
    </mxCell>
    <mxCell id="edge32" edge="1" value="" parent="1" source="node8" target="node39" style="html=1;rounded=1;edgeStyle=orthogonalEdgeStyle;dashed=1;startArrow=none;endArrow=openThin;endSize=12;strokeColor=#595959;exitX=0.500;exitY=0.001;exitDx=0;exitDy=0;entryX=0.500;entryY=1.001;entryDx=0;entryDy=0;">
      <mxGeometry width="50" height="50" relative="1" as="geometry">
        <Array as="points">
          <mxPoint x="3609" y="4175" />
          <mxPoint x="4209" y="4175" />
          <mxPoint x="4209" y="3735" />
          <mxPoint x="4309" y="3735" />
        </Array>
      </mxGeometry>
    </mxCell>
    <mxCell id="label194" parent="edge32" vertex="1" connectable="0" value="«create»" style="edgeLabel;resizable=0;html=1;align=left;verticalAlign=top;strokeColor=default;">
      <mxGeometry x="4161" y="4056" as="geometry" />
    </mxCell>
    <mxCell id="edge53" edge="1" value="" parent="1" source="node49" target="node53" style="html=1;rounded=1;edgeStyle=orthogonalEdgeStyle;dashed=0;startArrow=diamondThinstartSize=12;endArrow=openThin;endSize=12;strokeColor=#595959;exitX=0.500;exitY=0.000;exitDx=0;exitDy=0;entryX=0.500;entryY=0.001;entryDx=0;entryDy=0;">
      <mxGeometry width="50" height="50" relative="1" as="geometry">
        <Array as="points">
          <mxPoint x="6349" y="3215" />
          <mxPoint x="5749" y="3215" />
          <mxPoint x="5749" y="2795" />
          <mxPoint x="6049" y="2795" />
        </Array>
      </mxGeometry>
    </mxCell>
    <mxCell id="label318" parent="edge53" vertex="1" connectable="0" value="1" style="edgeLabel;resizable=0;html=1;align=left;verticalAlign=top;strokeColor=default;">
      <mxGeometry x="6194" y="3198" as="geometry" />
    </mxCell>
    <mxCell id="label322" parent="edge53" vertex="1" connectable="0" value="1" style="edgeLabel;resizable=0;html=1;align=left;verticalAlign=top;strokeColor=default;">
      <mxGeometry x="5969" y="2778" as="geometry" />
    </mxCell>
    <mxCell id="label323" parent="edge53" vertex="1" connectable="0" value="jwtAuthenticationFilter" style="edgeLabel;resizable=0;html=1;align=left;verticalAlign=top;strokeColor=default;">
      <mxGeometry x="6049" y="2797" as="geometry" />
    </mxCell>
    <mxCell id="edge47" edge="1" value="" parent="1" source="node49" target="node50" style="html=1;rounded=1;edgeStyle=orthogonalEdgeStyle;dashed=0;startArrow=diamondThinstartSize=12;endArrow=openThin;endSize=12;strokeColor=#595959;exitX=0.500;exitY=0.000;exitDx=0;exitDy=0;entryX=0.500;entryY=0.001;entryDx=0;entryDy=0;">
      <mxGeometry width="50" height="50" relative="1" as="geometry">
        <Array as="points">
          <mxPoint x="6349" y="1975" />
          <mxPoint x="6029" y="1975" />
        </Array>
      </mxGeometry>
    </mxCell>
    <mxCell id="label282" parent="edge47" vertex="1" connectable="0" value="1" style="edgeLabel;resizable=0;html=1;align=left;verticalAlign=top;strokeColor=default;">
      <mxGeometry x="6338" y="3230" as="geometry" />
    </mxCell>
    <mxCell id="label286" parent="edge47" vertex="1" connectable="0" value="1" style="edgeLabel;resizable=0;html=1;align=left;verticalAlign=top;strokeColor=default;">
      <mxGeometry x="6184" y="1958" as="geometry" />
    </mxCell>
    <mxCell id="label287" parent="edge47" vertex="1" connectable="0" value="userDetailsService" style="edgeLabel;resizable=0;html=1;align=left;verticalAlign=top;strokeColor=default;">
      <mxGeometry x="6299" y="1975" as="geometry" />
    </mxCell>
    <mxCell id="edge82" edge="1" value="" parent="1" source="node16" target="node1" style="html=1;rounded=1;edgeStyle=orthogonalEdgeStyle;dashed=1;startArrow=none;endArrow=openThin;endSize=12;strokeColor=#595959;exitX=0.500;exitY=0.000;exitDx=0;exitDy=0;entryX=0.250;entryY=1.000;entryDx=0;entryDy=0;">
      <mxGeometry width="50" height="50" relative="1" as="geometry">
        <Array as="points">
          <mxPoint x="6709" y="2535" />
          <mxPoint x="6469" y="2535" />
          <mxPoint x="6469" y="1835" />
          <mxPoint x="6629" y="1835" />
        </Array>
      </mxGeometry>
    </mxCell>
    <mxCell id="label494" parent="edge82" vertex="1" connectable="0" value="«create»" style="edgeLabel;resizable=0;html=1;align=left;verticalAlign=top;strokeColor=default;">
      <mxGeometry x="6421" y="2176" as="geometry" />
    </mxCell>
    <mxCell id="edge78" edge="1" value="" parent="1" source="node16" target="node34" style="html=1;rounded=1;edgeStyle=orthogonalEdgeStyle;dashed=1;startArrow=none;endArrow=openThin;endSize=12;strokeColor=#595959;exitX=0.500;exitY=0.000;exitDx=0;exitDy=0;entryX=0.500;entryY=1.000;entryDx=0;entryDy=0;">
      <mxGeometry width="50" height="50" relative="1" as="geometry">
        <Array as="points">
          <mxPoint x="6709" y="2535" />
          <mxPoint x="6469" y="2535" />
          <mxPoint x="6469" y="2235" />
          <mxPoint x="6649" y="2235" />
        </Array>
      </mxGeometry>
    </mxCell>
    <mxCell id="label470" parent="edge78" vertex="1" connectable="0" value="«create»" style="edgeLabel;resizable=0;html=1;align=left;verticalAlign=top;strokeColor=default;">
      <mxGeometry x="6421" y="2376" as="geometry" />
    </mxCell>
    <mxCell id="edge50" edge="1" value="" parent="1" source="node16" target="node28" style="html=1;rounded=1;edgeStyle=orthogonalEdgeStyle;dashed=1;startArrow=none;endArrow=openThin;endSize=12;strokeColor=#595959;exitX=0.500;exitY=0.000;exitDx=0;exitDy=0;entryX=0.250;entryY=1.000;entryDx=0;entryDy=0;">
      <mxGeometry width="50" height="50" relative="1" as="geometry">
        <Array as="points">
          <mxPoint x="6709" y="2535" />
          <mxPoint x="6469" y="2535" />
          <mxPoint x="6469" y="2235" />
          <mxPoint x="6429" y="2235" />
          <mxPoint x="6429" y="1435" />
          <mxPoint x="6217" y="1435" />
        </Array>
      </mxGeometry>
    </mxCell>
    <mxCell id="label302" parent="edge50" vertex="1" connectable="0" value="«create»" style="edgeLabel;resizable=0;html=1;align=left;verticalAlign=top;strokeColor=default;">
      <mxGeometry x="6421" y="2301" as="geometry" />
    </mxCell>
    <mxCell id="edge61" edge="1" value="" parent="1" source="node75" target="node51" style="html=1;rounded=1;edgeStyle=orthogonalEdgeStyle;dashed=0;startArrow=circlePlus;startFill=0;endArrow=none;strokeColor=#820000;exitX=0.833;exitY=0.000;exitDx=0;exitDy=0;entryX=0.750;entryY=1.000;entryDx=0;entryDy=0;">
      <mxGeometry width="50" height="50" relative="1" as="geometry">
        <Array as="points">
          <mxPoint x="1685" y="1555" />
          <mxPoint x="1749" y="1555" />
          <mxPoint x="1749" y="1015" />
          <mxPoint x="1748" y="1015" />
        </Array>
      </mxGeometry>
    </mxCell>
    <mxCell id="edge83" edge="1" value="" parent="1" source="node75" target="node51" style="html=1;rounded=1;edgeStyle=orthogonalEdgeStyle;dashed=0;startArrow=none;endArrow=block;endSize=12;strokeColor=#000082;exitX=0.500;exitY=0.000;exitDx=0;exitDy=0;entryX=0.250;entryY=1.000;entryDx=0;entryDy=0;">
      <mxGeometry width="50" height="50" relative="1" as="geometry">
        <Array as="points">
          <mxPoint x="1629" y="1015" />
          <mxPoint x="1630" y="1015" />
        </Array>
      </mxGeometry>
    </mxCell>
    <mxCell id="edge8" edge="1" value="" parent="1" source="node10" target="node55" style="html=1;rounded=1;edgeStyle=orthogonalEdgeStyle;dashed=0;startArrow=circlePlus;startFill=0;endArrow=none;strokeColor=#820000;exitX=0.167;exitY=0.000;exitDx=0;exitDy=0;entryX=0.250;entryY=1.000;entryDx=0;entryDy=0;">
      <mxGeometry width="50" height="50" relative="1" as="geometry">
        <Array as="points">
          <mxPoint x="1353" y="1555" />
          <mxPoint x="949" y="1555" />
          <mxPoint x="949" y="435" />
          <mxPoint x="948" y="435" />
        </Array>
      </mxGeometry>
    </mxCell>
    <mxCell id="edge68" edge="1" value="" parent="1" source="node10" target="node55" style="html=1;rounded=1;edgeStyle=orthogonalEdgeStyle;dashed=0;startArrow=none;endArrow=block;endSize=12;strokeColor=#000082;exitX=0.500;exitY=0.000;exitDx=0;exitDy=0;entryX=0.750;entryY=1.000;entryDx=0;entryDy=0;">
      <mxGeometry width="50" height="50" relative="1" as="geometry">
        <Array as="points">
          <mxPoint x="1429" y="1575" />
          <mxPoint x="1069" y="1575" />
          <mxPoint x="1069" y="435" />
          <mxPoint x="1070" y="435" />
        </Array>
      </mxGeometry>
    </mxCell>
    <mxCell id="edge13" edge="1" value="" parent="1" source="node27" target="node44" style="html=1;rounded=1;edgeStyle=orthogonalEdgeStyle;dashed=0;startArrow=none;endArrow=block;endSize=12;strokeColor=#000082;exitX=0.500;exitY=0.000;exitDx=0;exitDy=0;entryX=0.250;entryY=1.000;entryDx=0;entryDy=0;">
      <mxGeometry width="50" height="50" relative="1" as="geometry">
        <Array as="points">
          <mxPoint x="1789" y="1435" />
          <mxPoint x="4849" y="1435" />
          <mxPoint x="4849" y="955" />
          <mxPoint x="4857" y="955" />
        </Array>
      </mxGeometry>
    </mxCell>
    <mxCell id="edge93" edge="1" value="" parent="1" source="node27" target="node44" style="html=1;rounded=1;edgeStyle=orthogonalEdgeStyle;dashed=0;startArrow=circlePlus;startFill=0;endArrow=none;strokeColor=#820000;exitX=0.833;exitY=0.000;exitDx=0;exitDy=0;entryX=0.750;entryY=1.000;entryDx=0;entryDy=0;">
      <mxGeometry width="50" height="50" relative="1" as="geometry">
        <Array as="points">
          <mxPoint x="1845" y="1415" />
          <mxPoint x="4969" y="1415" />
          <mxPoint x="4969" y="955" />
          <mxPoint x="4962" y="955" />
        </Array>
      </mxGeometry>
    </mxCell>
    <mxCell id="edge18" edge="1" value="" parent="1" source="node60" target="node58" style="html=1;rounded=1;edgeStyle=orthogonalEdgeStyle;dashed=0;startArrow=diamondThinstartSize=12;endArrow=openThin;endSize=12;strokeColor=#595959;exitX=0.833;exitY=0.000;exitDx=0;exitDy=0;entryX=0.500;entryY=0.000;entryDx=0;entryDy=0;">
      <mxGeometry width="50" height="50" relative="1" as="geometry">
        <Array as="points">
          <mxPoint x="1110" y="3255" />
          <mxPoint x="1109" y="3255" />
          <mxPoint x="1109" y="2195" />
          <mxPoint x="1829" y="2195" />
          <mxPoint x="1829" y="2055" />
          <mxPoint x="1889" y="2055" />
          <mxPoint x="1889" y="1835" />
          <mxPoint x="2049" y="1835" />
        </Array>
      </mxGeometry>
    </mxCell>
    <mxCell id="label108" parent="edge18" vertex="1" connectable="0" value="1" style="edgeLabel;resizable=0;html=1;align=left;verticalAlign=top;strokeColor=default;">
      <mxGeometry x="1099" y="3259" as="geometry" />
    </mxCell>
    <mxCell id="label112" parent="edge18" vertex="1" connectable="0" value="1" style="edgeLabel;resizable=0;html=1;align=left;verticalAlign=top;strokeColor=default;">
      <mxGeometry x="1924" y="1818" as="geometry" />
    </mxCell>
    <mxCell id="label113" parent="edge18" vertex="1" connectable="0" value="news" style="edgeLabel;resizable=0;html=1;align=left;verticalAlign=top;strokeColor=default;">
      <mxGeometry x="1889" y="1936" as="geometry" />
    </mxCell>
    <mxCell id="edge36" edge="1" value="" parent="1" source="node43" target="node58" style="html=1;rounded=1;edgeStyle=orthogonalEdgeStyle;dashed=0;startArrow=diamondThinstartSize=12;endArrow=openThin;endSize=12;strokeColor=#595959;exitX=0.167;exitY=0.000;exitDx=0;exitDy=0;entryX=0.500;entryY=0.000;entryDx=0;entryDy=0;">
      <mxGeometry width="50" height="50" relative="1" as="geometry">
        <Array as="points">
          <mxPoint x="4108" y="3195" />
          <mxPoint x="1149" y="3195" />
          <mxPoint x="1149" y="2195" />
          <mxPoint x="1829" y="2195" />
          <mxPoint x="1829" y="2055" />
          <mxPoint x="1889" y="2055" />
          <mxPoint x="1889" y="1835" />
          <mxPoint x="2049" y="1835" />
        </Array>
      </mxGeometry>
    </mxCell>
    <mxCell id="label216" parent="edge36" vertex="1" connectable="0" value="1" style="edgeLabel;resizable=0;html=1;align=left;verticalAlign=top;strokeColor=default;">
      <mxGeometry x="4097" y="3251" as="geometry" />
    </mxCell>
    <mxCell id="label220" parent="edge36" vertex="1" connectable="0" value="1" style="edgeLabel;resizable=0;html=1;align=left;verticalAlign=top;strokeColor=default;">
      <mxGeometry x="1964" y="1818" as="geometry" />
    </mxCell>
    <mxCell id="label221" parent="edge36" vertex="1" connectable="0" value="news" style="edgeLabel;resizable=0;html=1;align=left;verticalAlign=top;strokeColor=default;">
      <mxGeometry x="1829" y="2081" as="geometry" />
    </mxCell>
    <mxCell id="edge26" edge="1" value="" parent="1" source="node60" target="node23" style="html=1;rounded=1;edgeStyle=orthogonalEdgeStyle;dashed=0;startArrow=circlePlus;startFill=0;endArrow=none;strokeColor=#820000;exitX=0.167;exitY=0.000;exitDx=0;exitDy=0;entryX=0.250;entryY=1.000;entryDx=0;entryDy=0;">
      <mxGeometry width="50" height="50" relative="1" as="geometry">
        <Array as="points">
          <mxPoint x="988" y="3215" />
          <mxPoint x="569" y="3215" />
          <mxPoint x="569" y="2955" />
          <mxPoint x="-144" y="2955" />
        </Array>
      </mxGeometry>
    </mxCell>
    <mxCell id="edge56" edge="1" value="" parent="1" source="node60" target="node23" style="html=1;rounded=1;edgeStyle=orthogonalEdgeStyle;dashed=0;startArrow=none;endArrow=block;endSize=12;strokeColor=#000082;exitX=0.500;exitY=0.000;exitDx=0;exitDy=0;entryX=0.750;entryY=1.000;entryDx=0;entryDy=0;">
      <mxGeometry width="50" height="50" relative="1" as="geometry">
        <Array as="points">
          <mxPoint x="1049" y="3255" />
          <mxPoint x="649" y="3255" />
          <mxPoint x="649" y="2935" />
          <mxPoint x="-38" y="2935" />
        </Array>
      </mxGeometry>
    </mxCell>
    <mxCell id="edge88" edge="1" value="" parent="1" source="node43" target="node2" style="html=1;rounded=1;edgeStyle=orthogonalEdgeStyle;dashed=0;startArrow=circlePlus;startFill=0;endArrow=none;strokeColor=#820000;exitX=0.500;exitY=0.000;exitDx=0;exitDy=0;entryX=0.250;entryY=1.000;entryDx=0;entryDy=0;">
      <mxGeometry width="50" height="50" relative="1" as="geometry">
        <Array as="points">
          <mxPoint x="4169" y="3255" />
          <mxPoint x="4309" y="3255" />
          <mxPoint x="4309" y="2995" />
          <mxPoint x="4403" y="2995" />
        </Array>
      </mxGeometry>
    </mxCell>
    <mxCell id="edge96" edge="1" value="" parent="1" source="node43" target="node2" style="html=1;rounded=1;edgeStyle=orthogonalEdgeStyle;dashed=0;startArrow=none;endArrow=block;endSize=12;strokeColor=#000082;exitX=0.833;exitY=0.000;exitDx=0;exitDy=0;entryX=0.750;entryY=1.000;entryDx=0;entryDy=0;">
      <mxGeometry width="50" height="50" relative="1" as="geometry">
        <Array as="points">
          <mxPoint x="4230" y="3235" />
          <mxPoint x="4489" y="3235" />
          <mxPoint x="4489" y="2495" />
          <mxPoint x="4495" y="2495" />
        </Array>
      </mxGeometry>
    </mxCell>
    <mxCell id="edge34" edge="1" value="" parent="1" source="node12" target="node45" style="html=1;rounded=1;edgeStyle=orthogonalEdgeStyle;dashed=0;startArrow=none;endArrow=block;endSize=12;strokeColor=#000082;exitX=0.167;exitY=0.000;exitDx=0;exitDy=0;entryX=0.250;entryY=1.000;entryDx=0;entryDy=0;">
      <mxGeometry width="50" height="50" relative="1" as="geometry">
        <Array as="points">
          <mxPoint x="733" y="1515" />
          <mxPoint x="529" y="1515" />
          <mxPoint x="529" y="435" />
          <mxPoint x="532" y="435" />
        </Array>
      </mxGeometry>
    </mxCell>
    <mxCell id="edge80" edge="1" value="" parent="1" source="node12" target="node45" style="html=1;rounded=1;edgeStyle=orthogonalEdgeStyle;dashed=0;startArrow=circlePlus;startFill=0;endArrow=none;strokeColor=#820000;exitX=0.500;exitY=0.000;exitDx=0;exitDy=0;entryX=0.750;entryY=1.000;entryDx=0;entryDy=0;">
      <mxGeometry width="50" height="50" relative="1" as="geometry">
        <Array as="points">
          <mxPoint x="789" y="1615" />
          <mxPoint x="649" y="1615" />
          <mxPoint x="649" y="1095" />
          <mxPoint x="646" y="1095" />
        </Array>
      </mxGeometry>
    </mxCell>
    <mxCell id="edge6" edge="1" value="" parent="1" source="node54" target="node35" style="html=1;rounded=1;edgeStyle=orthogonalEdgeStyle;dashed=0;startArrow=circlePlus;startFill=0;endArrow=none;strokeColor=#820000;exitX=0.167;exitY=0.000;exitDx=0;exitDy=0;entryX=0.250;entryY=1.000;entryDx=0;entryDy=0;">
      <mxGeometry width="50" height="50" relative="1" as="geometry">
        <Array as="points">
          <mxPoint x="333" y="1595" />
          <mxPoint x="-71" y="1595" />
          <mxPoint x="-71" y="1015" />
          <mxPoint x="-68" y="1015" />
        </Array>
      </mxGeometry>
    </mxCell>
    <mxCell id="edge66" edge="1" value="" parent="1" source="node54" target="node35" style="html=1;rounded=1;edgeStyle=orthogonalEdgeStyle;dashed=0;startArrow=none;endArrow=block;endSize=12;strokeColor=#000082;exitX=0.500;exitY=0.000;exitDx=0;exitDy=0;entryX=0.750;entryY=1.000;entryDx=0;entryDy=0;">
      <mxGeometry width="50" height="50" relative="1" as="geometry">
        <Array as="points">
          <mxPoint x="389" y="1615" />
          <mxPoint x="49" y="1615" />
          <mxPoint x="49" y="1015" />
          <mxPoint x="46" y="1015" />
        </Array>
      </mxGeometry>
    </mxCell>
    <mxCell id="edge25" edge="1" value="" parent="1" source="node27" target="node70" style="html=1;rounded=1;edgeStyle=orthogonalEdgeStyle;dashed=0;startArrow=diamondThinstartSize=12;endArrow=openThin;endSize=12;strokeColor=#595959;exitX=0.167;exitY=0.000;exitDx=0;exitDy=0;entryX=0.500;entryY=0.000;entryDx=0;entryDy=0;">
      <mxGeometry width="50" height="50" relative="1" as="geometry">
        <Array as="points">
          <mxPoint x="1733" y="1535" />
          <mxPoint x="1549" y="1535" />
          <mxPoint x="1549" y="155" />
          <mxPoint x="6849" y="155" />
        </Array>
      </mxGeometry>
    </mxCell>
    <mxCell id="label150" parent="edge25" vertex="1" connectable="0" value="1" style="edgeLabel;resizable=0;html=1;align=left;verticalAlign=top;strokeColor=default;">
      <mxGeometry x="1682" y="1518" as="geometry" />
    </mxCell>
    <mxCell id="label154" parent="edge25" vertex="1" connectable="0" value="1" style="edgeLabel;resizable=0;html=1;align=left;verticalAlign=top;strokeColor=default;">
      <mxGeometry x="6838" y="146" as="geometry" />
    </mxCell>
    <mxCell id="label155" parent="edge25" vertex="1" connectable="0" value="user" style="edgeLabel;resizable=0;html=1;align=left;verticalAlign=top;strokeColor=default;">
      <mxGeometry x="6849" y="146" as="geometry" />
    </mxCell>
    <mxCell id="edge30" edge="1" value="" parent="1" source="node54" target="node70" style="html=1;rounded=1;edgeStyle=orthogonalEdgeStyle;dashed=0;startArrow=diamondThinstartSize=12;endArrow=openThin;endSize=12;strokeColor=#595959;exitX=0.833;exitY=0.000;exitDx=0;exitDy=0;entryX=0.500;entryY=0.000;entryDx=0;entryDy=0;">
      <mxGeometry width="50" height="50" relative="1" as="geometry">
        <Array as="points">
          <mxPoint x="445" y="1535" />
          <mxPoint x="1549" y="1535" />
          <mxPoint x="1549" y="155" />
          <mxPoint x="6849" y="155" />
        </Array>
      </mxGeometry>
    </mxCell>
    <mxCell id="label180" parent="edge30" vertex="1" connectable="0" value="1" style="edgeLabel;resizable=0;html=1;align=left;verticalAlign=top;strokeColor=default;">
      <mxGeometry x="434" y="1959" as="geometry" />
    </mxCell>
    <mxCell id="label184" parent="edge30" vertex="1" connectable="0" value="1" style="edgeLabel;resizable=0;html=1;align=left;verticalAlign=top;strokeColor=default;">
      <mxGeometry x="6838" y="306" as="geometry" />
    </mxCell>
    <mxCell id="label185" parent="edge30" vertex="1" connectable="0" value="user" style="edgeLabel;resizable=0;html=1;align=left;verticalAlign=top;strokeColor=default;">
      <mxGeometry x="6849" y="624" as="geometry" />
    </mxCell>
    <mxCell id="edge39" edge="1" value="" parent="1" source="node75" target="node70" style="html=1;rounded=1;edgeStyle=orthogonalEdgeStyle;dashed=0;startArrow=diamondThinstartSize=12;endArrow=openThin;endSize=12;strokeColor=#595959;exitX=0.167;exitY=0.000;exitDx=0;exitDy=0;entryX=0.500;entryY=0.000;entryDx=0;entryDy=0;">
      <mxGeometry width="50" height="50" relative="1" as="geometry">
        <Array as="points">
          <mxPoint x="1573" y="1535" />
          <mxPoint x="1549" y="1535" />
          <mxPoint x="1549" y="155" />
          <mxPoint x="6849" y="155" />
        </Array>
      </mxGeometry>
    </mxCell>
    <mxCell id="label234" parent="edge39" vertex="1" connectable="0" value="1" style="edgeLabel;resizable=0;html=1;align=left;verticalAlign=top;strokeColor=default;">
      <mxGeometry x="1562" y="1959" as="geometry" />
    </mxCell>
    <mxCell id="label238" parent="edge39" vertex="1" connectable="0" value="1" style="edgeLabel;resizable=0;html=1;align=left;verticalAlign=top;strokeColor=default;">
      <mxGeometry x="6798" y="624" as="geometry" />
    </mxCell>
    <mxCell id="label239" parent="edge39" vertex="1" connectable="0" value="user" style="edgeLabel;resizable=0;html=1;align=left;verticalAlign=top;strokeColor=default;">
      <mxGeometry x="6849" y="306" as="geometry" />
    </mxCell>
    <mxCell id="edge75" edge="1" value="" parent="1" source="node10" target="node70" style="html=1;rounded=1;edgeStyle=orthogonalEdgeStyle;dashed=0;startArrow=diamondThinstartSize=12;endArrow=openThin;endSize=12;strokeColor=#595959;exitX=0.833;exitY=0.000;exitDx=0;exitDy=0;entryX=0.500;entryY=0.000;entryDx=0;entryDy=0;">
      <mxGeometry width="50" height="50" relative="1" as="geometry">
        <Array as="points">
          <mxPoint x="1505" y="1535" />
          <mxPoint x="1549" y="1535" />
          <mxPoint x="1549" y="155" />
          <mxPoint x="6849" y="155" />
        </Array>
      </mxGeometry>
    </mxCell>
    <mxCell id="label450" parent="edge75" vertex="1" connectable="0" value="1" style="edgeLabel;resizable=0;html=1;align=left;verticalAlign=top;strokeColor=default;">
      <mxGeometry x="1494" y="1560" as="geometry" />
    </mxCell>
    <mxCell id="label454" parent="edge75" vertex="1" connectable="0" value="*" style="edgeLabel;resizable=0;html=1;align=left;verticalAlign=top;strokeColor=default;">
      <mxGeometry x="6800" y="769" as="geometry" />
    </mxCell>
    <mxCell id="label455" parent="edge75" vertex="1" connectable="0" value="users" style="edgeLabel;resizable=0;html=1;align=left;verticalAlign=top;strokeColor=default;">
      <mxGeometry x="6849" y="465" as="geometry" />
    </mxCell>
    <mxCell id="edge84" edge="1" value="" parent="1" source="node12" target="node70" style="html=1;rounded=1;edgeStyle=orthogonalEdgeStyle;dashed=0;startArrow=diamondThinstartSize=12;endArrow=openThin;endSize=12;strokeColor=#595959;exitX=0.833;exitY=0.000;exitDx=0;exitDy=0;entryX=0.500;entryY=0.000;entryDx=0;entryDy=0;">
      <mxGeometry width="50" height="50" relative="1" as="geometry">
        <Array as="points">
          <mxPoint x="845" y="1535" />
          <mxPoint x="1549" y="1535" />
          <mxPoint x="1549" y="155" />
          <mxPoint x="6849" y="155" />
        </Array>
      </mxGeometry>
    </mxCell>
    <mxCell id="label504" parent="edge84" vertex="1" connectable="0" value="1" style="edgeLabel;resizable=0;html=1;align=left;verticalAlign=top;strokeColor=default;">
      <mxGeometry x="834" y="1929" as="geometry" />
    </mxCell>
    <mxCell id="label508" parent="edge84" vertex="1" connectable="0" value="1" style="edgeLabel;resizable=0;html=1;align=left;verticalAlign=top;strokeColor=default;">
      <mxGeometry x="6838" y="624" as="geometry" />
    </mxCell>
    <mxCell id="label509" parent="edge84" vertex="1" connectable="0" value="user" style="edgeLabel;resizable=0;html=1;align=left;verticalAlign=top;strokeColor=default;">
      <mxGeometry x="6889" y="465" as="geometry" />
    </mxCell>
    <mxCell id="edge46" edge="1" value="" parent="1" source="node0" target="node55" style="html=1;rounded=1;edgeStyle=orthogonalEdgeStyle;dashed=0;startArrow=none;endArrow=block;endSize=12;strokeColor=#000082;exitX=0.500;exitY=0.000;exitDx=0;exitDy=0;entryX=0.750;entryY=1.000;entryDx=0;entryDy=0;">
      <mxGeometry width="50" height="50" relative="1" as="geometry">
        <Array as="points">
          <mxPoint x="1209" y="1575" />
          <mxPoint x="1069" y="1575" />
          <mxPoint x="1069" y="435" />
          <mxPoint x="1070" y="435" />
        </Array>
      </mxGeometry>
    </mxCell>
    <mxCell id="edge62" edge="1" value="" parent="1" source="node0" target="node55" style="html=1;rounded=1;edgeStyle=orthogonalEdgeStyle;dashed=0;startArrow=circlePlus;startFill=0;endArrow=none;strokeColor=#820000;exitX=0.167;exitY=0.000;exitDx=0;exitDy=0;entryX=0.250;entryY=1.000;entryDx=0;entryDy=0;">
      <mxGeometry width="50" height="50" relative="1" as="geometry">
        <Array as="points">
          <mxPoint x="1130" y="1555" />
          <mxPoint x="949" y="1555" />
          <mxPoint x="949" y="435" />
          <mxPoint x="948" y="435" />
        </Array>
      </mxGeometry>
    </mxCell>
    <mxCell id="edge41" edge="1" value="" parent="1" source="node0" target="node70" style="html=1;rounded=1;edgeStyle=orthogonalEdgeStyle;dashed=0;startArrow=diamondThinstartSize=12;endArrow=openThin;endSize=12;strokeColor=#595959;exitX=0.833;exitY=0.000;exitDx=0;exitDy=0;entryX=0.500;entryY=0.000;entryDx=0;entryDy=0;">
      <mxGeometry width="50" height="50" relative="1" as="geometry">
        <Array as="points">
          <mxPoint x="1288" y="1535" />
          <mxPoint x="1549" y="1535" />
          <mxPoint x="1549" y="155" />
          <mxPoint x="6849" y="155" />
        </Array>
      </mxGeometry>
    </mxCell>
    <mxCell id="label246" parent="edge41" vertex="1" connectable="0" value="1" style="edgeLabel;resizable=0;html=1;align=left;verticalAlign=top;strokeColor=default;">
      <mxGeometry x="1277" y="1959" as="geometry" />
    </mxCell>
    <mxCell id="label250" parent="edge41" vertex="1" connectable="0" value="*" style="edgeLabel;resizable=0;html=1;align=left;verticalAlign=top;strokeColor=default;">
      <mxGeometry x="6840" y="769" as="geometry" />
    </mxCell>
    <mxCell id="label251" parent="edge41" vertex="1" connectable="0" value="users" style="edgeLabel;resizable=0;html=1;align=left;verticalAlign=top;strokeColor=default;">
      <mxGeometry x="6889" y="624" as="geometry" />
    </mxCell>
    <mxCell id="edge90" edge="1" value="" parent="1" source="node62" target="node58" style="html=1;rounded=1;edgeStyle=orthogonalEdgeStyle;dashed=0;startArrow=diamondThinstartSize=12;endArrow=openThin;endSize=12;strokeColor=#595959;exitX=0.833;exitY=0.000;exitDx=0;exitDy=0;entryX=0.500;entryY=0.000;entryDx=0;entryDy=0;">
      <mxGeometry width="50" height="50" relative="1" as="geometry">
        <Array as="points">
          <mxPoint x="876" y="3235" />
          <mxPoint x="829" y="3235" />
          <mxPoint x="829" y="2195" />
          <mxPoint x="1829" y="2195" />
          <mxPoint x="1829" y="2055" />
          <mxPoint x="1889" y="2055" />
          <mxPoint x="1889" y="1835" />
          <mxPoint x="2049" y="1835" />
        </Array>
      </mxGeometry>
    </mxCell>
    <mxCell id="label540" parent="edge90" vertex="1" connectable="0" value="1" style="edgeLabel;resizable=0;html=1;align=left;verticalAlign=top;strokeColor=default;">
      <mxGeometry x="865" y="3589" as="geometry" />
    </mxCell>
    <mxCell id="label544" parent="edge90" vertex="1" connectable="0" value="*" style="edgeLabel;resizable=0;html=1;align=left;verticalAlign=top;strokeColor=default;">
      <mxGeometry x="2005" y="1818" as="geometry" />
    </mxCell>
    <mxCell id="label545" parent="edge90" vertex="1" connectable="0" value="newsList" style="edgeLabel;resizable=0;html=1;align=left;verticalAlign=top;strokeColor=default;">
      <mxGeometry x="1804" y="2195" as="geometry" />
    </mxCell>
    <mxCell id="edge74" edge="1" value="" parent="1" source="node62" target="node23" style="html=1;rounded=1;edgeStyle=orthogonalEdgeStyle;dashed=0;startArrow=circlePlus;startFill=0;endArrow=none;strokeColor=#820000;exitX=0.167;exitY=0.000;exitDx=0;exitDy=0;entryX=0.250;entryY=1.000;entryDx=0;entryDy=0;">
      <mxGeometry width="50" height="50" relative="1" as="geometry">
        <Array as="points">
          <mxPoint x="702" y="3215" />
          <mxPoint x="569" y="3215" />
          <mxPoint x="569" y="2955" />
          <mxPoint x="-144" y="2955" />
        </Array>
      </mxGeometry>
    </mxCell>
    <mxCell id="edge110" edge="1" value="" parent="1" source="node62" target="node23" style="html=1;rounded=1;edgeStyle=orthogonalEdgeStyle;dashed=0;startArrow=none;endArrow=block;endSize=12;strokeColor=#000082;exitX=0.500;exitY=0.000;exitDx=0;exitDy=0;entryX=0.750;entryY=1.000;entryDx=0;entryDy=0;">
      <mxGeometry width="50" height="50" relative="1" as="geometry">
        <Array as="points">
          <mxPoint x="789" y="3255" />
          <mxPoint x="649" y="3255" />
          <mxPoint x="649" y="2935" />
          <mxPoint x="-38" y="2935" />
        </Array>
      </mxGeometry>
    </mxCell>
    <mxCell id="edge21" edge="1" value="" parent="1" source="node63" target="node51" style="html=1;rounded=1;edgeStyle=orthogonalEdgeStyle;dashed=0;startArrow=none;endArrow=block;endSize=12;strokeColor=#000082;exitX=0.250;exitY=0.001;exitDx=0;exitDy=0;entryX=0.250;entryY=1.000;entryDx=0;entryDy=0;">
      <mxGeometry width="50" height="50" relative="1" as="geometry">
        <Array as="points">
          <mxPoint x="3150" y="1035" />
          <mxPoint x="1629" y="1035" />
          <mxPoint x="1629" y="1015" />
          <mxPoint x="1630" y="1015" />
        </Array>
      </mxGeometry>
    </mxCell>
    <mxCell id="edge94" edge="1" value="" parent="1" source="node63" target="node51" style="html=1;rounded=1;edgeStyle=orthogonalEdgeStyle;dashed=0;startArrow=circlePlus;startFill=0;endArrow=none;strokeColor=#820000;exitX=0.750;exitY=0.001;exitDx=0;exitDy=0;entryX=0.750;entryY=1.000;entryDx=0;entryDy=0;">
      <mxGeometry width="50" height="50" relative="1" as="geometry">
        <Array as="points">
          <mxPoint x="3268" y="1555" />
          <mxPoint x="1749" y="1555" />
          <mxPoint x="1749" y="1015" />
          <mxPoint x="1748" y="1015" />
        </Array>
      </mxGeometry>
    </mxCell>
    <mxCell id="edge9" edge="1" value="" parent="1" source="node18" target="node55" style="html=1;rounded=1;edgeStyle=orthogonalEdgeStyle;dashed=0;startArrow=none;endArrow=block;endSize=12;strokeColor=#000082;exitX=0.750;exitY=0.001;exitDx=0;exitDy=0;entryX=0.750;entryY=1.000;entryDx=0;entryDy=0;">
      <mxGeometry width="50" height="50" relative="1" as="geometry">
        <Array as="points">
          <mxPoint x="1048" y="1575" />
          <mxPoint x="1069" y="1575" />
          <mxPoint x="1069" y="435" />
          <mxPoint x="1070" y="435" />
        </Array>
      </mxGeometry>
    </mxCell>
    <mxCell id="edge38" edge="1" value="" parent="1" source="node18" target="node55" style="html=1;rounded=1;edgeStyle=orthogonalEdgeStyle;dashed=0;startArrow=circlePlus;startFill=0;endArrow=none;strokeColor=#820000;exitX=0.250;exitY=0.001;exitDx=0;exitDy=0;entryX=0.250;entryY=1.000;entryDx=0;entryDy=0;">
      <mxGeometry width="50" height="50" relative="1" as="geometry">
        <Array as="points">
          <mxPoint x="930" y="1555" />
          <mxPoint x="949" y="1555" />
          <mxPoint x="949" y="435" />
          <mxPoint x="948" y="435" />
        </Array>
      </mxGeometry>
    </mxCell>
    <mxCell id="edge14" edge="1" value="" parent="1" source="node38" target="node63" style="html=1;rounded=1;edgeStyle=orthogonalEdgeStyle;dashed=1;startArrow=none;endArrow=openThin;endSize=12;strokeColor=#595959;exitX=0.500;exitY=0.000;exitDx=0;exitDy=0;entryX=0.500;entryY=1.001;entryDx=0;entryDy=0;">
      <mxGeometry width="50" height="50" relative="1" as="geometry">
        <Array as="points" />
      </mxGeometry>
    </mxCell>
    <mxCell id="label86" parent="edge14" vertex="1" connectable="0" value="«create»" style="edgeLabel;resizable=0;html=1;align=left;verticalAlign=top;strokeColor=default;">
      <mxGeometry x="3161" y="2235" as="geometry" />
    </mxCell>
    <mxCell id="edge70" edge="1" value="" parent="1" source="node3" target="node48" style="html=1;rounded=1;edgeStyle=orthogonalEdgeStyle;dashed=0;startArrow=diamondThinstartSize=12;endArrow=openThin;endSize=12;strokeColor=#595959;exitX=0.500;exitY=0.000;exitDx=0;exitDy=0;entryX=0.500;entryY=1.000;entryDx=0;entryDy=0;">
      <mxGeometry width="50" height="50" relative="1" as="geometry">
        <Array as="points">
          <mxPoint x="6469" y="135" />
          <mxPoint x="789" y="135" />
        </Array>
      </mxGeometry>
    </mxCell>
    <mxCell id="label420" parent="edge70" vertex="1" connectable="0" value="1" style="edgeLabel;resizable=0;html=1;align=left;verticalAlign=top;strokeColor=default;">
      <mxGeometry x="6458" y="769" as="geometry" />
    </mxCell>
    <mxCell id="label424" parent="edge70" vertex="1" connectable="0" value="1" style="edgeLabel;resizable=0;html=1;align=left;verticalAlign=top;strokeColor=default;">
      <mxGeometry x="778" y="103" as="geometry" />
    </mxCell>
    <mxCell id="label425" parent="edge70" vertex="1" connectable="0" value="role" style="edgeLabel;resizable=0;html=1;align=left;verticalAlign=top;strokeColor=default;">
      <mxGeometry x="789" y="126" as="geometry" />
    </mxCell>
    <mxCell id="edge79" edge="1" value="" parent="1" source="node13" target="node69" style="html=1;rounded=1;edgeStyle=orthogonalEdgeStyle;dashed=0;startArrow=diamondThinstartSize=12;endArrow=openThin;endSize=12;strokeColor=#595959;exitX=0.750;exitY=1.000;exitDx=0;exitDy=0;entryX=0.500;entryY=0.000;entryDx=0;entryDy=0;">
      <mxGeometry width="50" height="50" relative="1" as="geometry">
        <Array as="points">
          <mxPoint x="4204" y="1395" />
          <mxPoint x="4169" y="1395" />
        </Array>
      </mxGeometry>
    </mxCell>
    <mxCell id="label474" parent="edge79" vertex="1" connectable="0" value="1" style="edgeLabel;resizable=0;html=1;align=left;verticalAlign=top;strokeColor=default;">
      <mxGeometry x="4193" y="1386" as="geometry" />
    </mxCell>
    <mxCell id="label478" parent="edge79" vertex="1" connectable="0" value="*" style="edgeLabel;resizable=0;html=1;align=left;verticalAlign=top;strokeColor=default;">
      <mxGeometry x="4160" y="1451" as="geometry" />
    </mxCell>
    <mxCell id="label479" parent="edge79" vertex="1" connectable="0" value="news" style="edgeLabel;resizable=0;html=1;align=left;verticalAlign=top;strokeColor=default;">
      <mxGeometry x="4204" y="1386" as="geometry" />
    </mxCell>
    <mxCell id="edge76" edge="1" value="" parent="1" source="node13" target="node48" style="html=1;rounded=1;edgeStyle=orthogonalEdgeStyle;dashed=0;startArrow=diamondThinstartSize=12;endArrow=openThin;endSize=12;strokeColor=#595959;exitX=0.750;exitY=1.000;exitDx=0;exitDy=0;entryX=0.500;entryY=1.000;entryDx=0;entryDy=0;">
      <mxGeometry width="50" height="50" relative="1" as="geometry">
        <Array as="points">
          <mxPoint x="4204" y="1355" />
          <mxPoint x="3889" y="1355" />
          <mxPoint x="3889" y="135" />
          <mxPoint x="789" y="135" />
        </Array>
      </mxGeometry>
    </mxCell>
    <mxCell id="label456" parent="edge76" vertex="1" connectable="0" value="1" style="edgeLabel;resizable=0;html=1;align=left;verticalAlign=top;strokeColor=default;">
      <mxGeometry x="4041" y="1338" as="geometry" />
    </mxCell>
    <mxCell id="label460" parent="edge76" vertex="1" connectable="0" value="1" style="edgeLabel;resizable=0;html=1;align=left;verticalAlign=top;strokeColor=default;">
      <mxGeometry x="1559" y="118" as="geometry" />
    </mxCell>
    <mxCell id="label461" parent="edge76" vertex="1" connectable="0" value="role" style="edgeLabel;resizable=0;html=1;align=left;verticalAlign=top;strokeColor=default;">
      <mxGeometry x="1553" y="175" as="geometry" />
    </mxCell>
    <mxCell id="edge89" edge="1" value="" parent="1" source="node74" target="node4" style="html=1;rounded=1;edgeStyle=orthogonalEdgeStyle;dashed=0;startArrow=diamondThinstartSize=12;endArrow=openThin;endSize=12;strokeColor=#595959;exitX=0.750;exitY=0.000;exitDx=0;exitDy=0;entryX=0.500;entryY=1.000;entryDx=0;entryDy=0;">
      <mxGeometry width="50" height="50" relative="1" as="geometry">
        <Array as="points">
          <mxPoint x="1681" y="2335" />
          <mxPoint x="2449" y="2335" />
          <mxPoint x="2449" y="2235" />
          <mxPoint x="2489" y="2235" />
          <mxPoint x="2489" y="2195" />
          <mxPoint x="2709" y="2195" />
        </Array>
      </mxGeometry>
    </mxCell>
    <mxCell id="label534" parent="edge89" vertex="1" connectable="0" value="1" style="edgeLabel;resizable=0;html=1;align=left;verticalAlign=top;strokeColor=default;">
      <mxGeometry x="1670" y="2615" as="geometry" />
    </mxCell>
    <mxCell id="label538" parent="edge89" vertex="1" connectable="0" value="1" style="edgeLabel;resizable=0;html=1;align=left;verticalAlign=top;strokeColor=default;">
      <mxGeometry x="2539" y="2178" as="geometry" />
    </mxCell>
    <mxCell id="label539" parent="edge89" vertex="1" connectable="0" value="jwtUtil" style="edgeLabel;resizable=0;html=1;align=left;verticalAlign=top;strokeColor=default;">
      <mxGeometry x="2489" y="2226" as="geometry" />
    </mxCell>
    <mxCell id="edge5" edge="1" value="" parent="1" source="node74" target="node54" style="html=1;rounded=1;edgeStyle=orthogonalEdgeStyle;dashed=1;startArrow=none;endArrow=openThin;endSize=12;strokeColor=#595959;exitX=0.250;exitY=0.000;exitDx=0;exitDy=0;entryX=0.500;entryY=1.000;entryDx=0;entryDy=0;">
      <mxGeometry width="50" height="50" relative="1" as="geometry">
        <Array as="points">
          <mxPoint x="1338" y="2615" />
          <mxPoint x="989" y="2615" />
          <mxPoint x="989" y="2155" />
          <mxPoint x="389" y="2155" />
        </Array>
      </mxGeometry>
    </mxCell>
    <mxCell id="label32" parent="edge5" vertex="1" connectable="0" value="«create»" style="edgeLabel;resizable=0;html=1;align=left;verticalAlign=top;strokeColor=default;">
      <mxGeometry x="665" y="2136" as="geometry" />
    </mxCell>
    <mxCell id="edge71" edge="1" value="" parent="1" source="node74" target="node75" style="html=1;rounded=1;edgeStyle=orthogonalEdgeStyle;dashed=1;startArrow=none;endArrow=openThin;endSize=12;strokeColor=#595959;exitX=0.250;exitY=0.000;exitDx=0;exitDy=0;entryX=0.500;entryY=1.000;entryDx=0;entryDy=0;">
      <mxGeometry width="50" height="50" relative="1" as="geometry">
        <Array as="points">
          <mxPoint x="1338" y="2615" />
          <mxPoint x="989" y="2615" />
          <mxPoint x="989" y="2155" />
          <mxPoint x="1629" y="2155" />
        </Array>
      </mxGeometry>
    </mxCell>
    <mxCell id="label428" parent="edge71" vertex="1" connectable="0" value="«create»" style="edgeLabel;resizable=0;html=1;align=left;verticalAlign=top;strokeColor=default;">
      <mxGeometry x="941" y="2261" as="geometry" />
    </mxCell>
    <mxCell id="edge98" edge="1" value="" parent="1" source="node74" target="node27" style="html=1;rounded=1;edgeStyle=orthogonalEdgeStyle;dashed=1;startArrow=none;endArrow=openThin;endSize=12;strokeColor=#595959;exitX=0.250;exitY=0.000;exitDx=0;exitDy=0;entryX=0.500;entryY=1.000;entryDx=0;entryDy=0;">
      <mxGeometry width="50" height="50" relative="1" as="geometry">
        <Array as="points">
          <mxPoint x="1338" y="2615" />
          <mxPoint x="989" y="2615" />
          <mxPoint x="989" y="2155" />
          <mxPoint x="1789" y="2155" />
        </Array>
      </mxGeometry>
    </mxCell>
    <mxCell id="label590" parent="edge98" vertex="1" connectable="0" value="«create»" style="edgeLabel;resizable=0;html=1;align=left;verticalAlign=top;strokeColor=default;">
      <mxGeometry x="941" y="2491" as="geometry" />
    </mxCell>
    <mxCell id="edge100" edge="1" value="" parent="1" source="node74" target="node12" style="html=1;rounded=1;edgeStyle=orthogonalEdgeStyle;dashed=1;startArrow=none;endArrow=openThin;endSize=12;strokeColor=#595959;exitX=0.250;exitY=0.000;exitDx=0;exitDy=0;entryX=0.500;entryY=1.000;entryDx=0;entryDy=0;">
      <mxGeometry width="50" height="50" relative="1" as="geometry">
        <Array as="points">
          <mxPoint x="1338" y="2615" />
          <mxPoint x="989" y="2615" />
          <mxPoint x="989" y="2155" />
          <mxPoint x="789" y="2155" />
        </Array>
      </mxGeometry>
    </mxCell>
    <mxCell id="label602" parent="edge100" vertex="1" connectable="0" value="«create»" style="edgeLabel;resizable=0;html=1;align=left;verticalAlign=top;strokeColor=default;">
      <mxGeometry x="941" y="2376" as="geometry" />
    </mxCell>
    <mxCell id="edge20" edge="1" value="" parent="1" source="node74" target="node0" style="html=1;rounded=1;edgeStyle=orthogonalEdgeStyle;dashed=1;startArrow=none;endArrow=openThin;endSize=12;strokeColor=#595959;exitX=0.250;exitY=0.000;exitDx=0;exitDy=0;entryX=0.500;entryY=1.000;entryDx=0;entryDy=0;">
      <mxGeometry width="50" height="50" relative="1" as="geometry">
        <Array as="points">
          <mxPoint x="1338" y="2615" />
          <mxPoint x="989" y="2615" />
          <mxPoint x="989" y="2155" />
          <mxPoint x="1209" y="2155" />
        </Array>
      </mxGeometry>
    </mxCell>
    <mxCell id="label122" parent="edge20" vertex="1" connectable="0" value="«create»" style="edgeLabel;resizable=0;html=1;align=left;verticalAlign=top;strokeColor=default;">
      <mxGeometry x="1161" y="2112" as="geometry" />
    </mxCell>
    <mxCell id="edge54" edge="1" value="" parent="1" source="node74" target="node18" style="html=1;rounded=1;edgeStyle=orthogonalEdgeStyle;dashed=1;startArrow=none;endArrow=openThin;endSize=12;strokeColor=#595959;exitX=0.250;exitY=0.000;exitDx=0;exitDy=0;entryX=0.500;entryY=1.001;entryDx=0;entryDy=0;">
      <mxGeometry width="50" height="50" relative="1" as="geometry">
        <Array as="points">
          <mxPoint x="1338" y="2615" />
          <mxPoint x="989" y="2615" />
        </Array>
      </mxGeometry>
    </mxCell>
    <mxCell id="label326" parent="edge54" vertex="1" connectable="0" value="«create»" style="edgeLabel;resizable=0;html=1;align=left;verticalAlign=top;strokeColor=default;">
      <mxGeometry x="1139" y="2596" as="geometry" />
    </mxCell>
    <mxCell id="edge22" edge="1" value="" parent="1" source="node74" target="node15" style="html=1;rounded=1;edgeStyle=orthogonalEdgeStyle;dashed=1;startArrow=none;endArrow=openThin;endSize=12;strokeColor=#595959;exitX=0.250;exitY=0.000;exitDx=0;exitDy=0;entryX=0.500;entryY=1.001;entryDx=0;entryDy=0;">
      <mxGeometry width="50" height="50" relative="1" as="geometry">
        <Array as="points">
          <mxPoint x="1338" y="2615" />
          <mxPoint x="989" y="2615" />
          <mxPoint x="989" y="2175" />
          <mxPoint x="349" y="2175" />
          <mxPoint x="349" y="2115" />
          <mxPoint x="149" y="2115" />
        </Array>
      </mxGeometry>
    </mxCell>
    <mxCell id="label134" parent="edge22" vertex="1" connectable="0" value="«create»" style="edgeLabel;resizable=0;html=1;align=left;verticalAlign=top;strokeColor=default;">
      <mxGeometry x="301" y="2136" as="geometry" />
    </mxCell>
    <mxCell id="edge16" edge="1" value="" parent="1" source="node74" target="node32" style="html=1;rounded=1;edgeStyle=orthogonalEdgeStyle;dashed=0;startArrow=diamondThinstartSize=12;endArrow=openThin;endSize=12;strokeColor=#595959;exitX=0.750;exitY=0.000;exitDx=0;exitDy=0;entryX=0.750;entryY=0.000;entryDx=0;entryDy=0;">
      <mxGeometry width="50" height="50" relative="1" as="geometry">
        <Array as="points">
          <mxPoint x="1681" y="2335" />
          <mxPoint x="2449" y="2335" />
          <mxPoint x="2449" y="1535" />
          <mxPoint x="3723" y="1535" />
        </Array>
      </mxGeometry>
    </mxCell>
    <mxCell id="label96" parent="edge16" vertex="1" connectable="0" value="1" style="edgeLabel;resizable=0;html=1;align=left;verticalAlign=top;strokeColor=default;">
      <mxGeometry x="1669" y="2402" as="geometry" />
    </mxCell>
    <mxCell id="label100" parent="edge16" vertex="1" connectable="0" value="1" style="edgeLabel;resizable=0;html=1;align=left;verticalAlign=top;strokeColor=default;">
      <mxGeometry x="3399" y="1518" as="geometry" />
    </mxCell>
    <mxCell id="label101" parent="edge16" vertex="1" connectable="0" value="userService" style="edgeLabel;resizable=0;html=1;align=left;verticalAlign=top;strokeColor=default;">
      <mxGeometry x="3723" y="1840" as="geometry" />
    </mxCell>
    <mxCell id="edge58" edge="1" value="" parent="1" source="node70" target="node48" style="html=1;rounded=1;edgeStyle=orthogonalEdgeStyle;dashed=0;startArrow=diamondThinstartSize=12;endArrow=openThin;endSize=12;strokeColor=#595959;exitX=0.500;exitY=0.000;exitDx=0;exitDy=0;entryX=0.500;entryY=1.000;entryDx=0;entryDy=0;">
      <mxGeometry width="50" height="50" relative="1" as="geometry">
        <Array as="points">
          <mxPoint x="6849" y="135" />
          <mxPoint x="789" y="135" />
        </Array>
      </mxGeometry>
    </mxCell>
    <mxCell id="label348" parent="edge58" vertex="1" connectable="0" value="1" style="edgeLabel;resizable=0;html=1;align=left;verticalAlign=top;strokeColor=default;">
      <mxGeometry x="6838" y="126" as="geometry" />
    </mxCell>
    <mxCell id="label352" parent="edge58" vertex="1" connectable="0" value="1" style="edgeLabel;resizable=0;html=1;align=left;verticalAlign=top;strokeColor=default;">
      <mxGeometry x="778" y="126" as="geometry" />
    </mxCell>
    <mxCell id="label353" parent="edge58" vertex="1" connectable="0" value="role" style="edgeLabel;resizable=0;html=1;align=left;verticalAlign=top;strokeColor=default;">
      <mxGeometry x="789" y="103" as="geometry" />
    </mxCell>
    <mxCell id="edge43" edge="1" value="" parent="1" source="node50" target="node6" style="html=1;rounded=1;edgeStyle=orthogonalEdgeStyle;dashed=0;startArrow=diamondThinstartSize=12;endArrow=openThin;endSize=12;strokeColor=#595959;exitX=0.500;exitY=0.000;exitDx=0;exitDy=0;entryX=0.500;entryY=1.000;entryDx=0;entryDy=0;">
      <mxGeometry width="50" height="50" relative="1" as="geometry">
        <Array as="points" />
      </mxGeometry>
    </mxCell>
    <mxCell id="label258" parent="edge43" vertex="1" connectable="0" value="1" style="edgeLabel;resizable=0;html=1;align=left;verticalAlign=top;strokeColor=default;">
      <mxGeometry x="6018" y="1915" as="geometry" />
    </mxCell>
    <mxCell id="label262" parent="edge43" vertex="1" connectable="0" value="1" style="edgeLabel;resizable=0;html=1;align=left;verticalAlign=top;strokeColor=default;">
      <mxGeometry x="6018" y="1038" as="geometry" />
    </mxCell>
    <mxCell id="label263" parent="edge43" vertex="1" connectable="0" value="userRepository" style="edgeLabel;resizable=0;html=1;align=left;verticalAlign=top;strokeColor=default;">
      <mxGeometry x="6029" y="1038" as="geometry" />
    </mxCell>
    <mxCell id="edge49" edge="1" value="" parent="1" source="node73" target="node70" style="html=1;rounded=1;edgeStyle=orthogonalEdgeStyle;dashed=1;startArrow=none;endArrow=openThin;endSize=12;strokeColor=#595959;exitX=0.500;exitY=0.000;exitDx=0;exitDy=0;entryX=0.500;entryY=1.000;entryDx=0;entryDy=0;">
      <mxGeometry width="50" height="50" relative="1" as="geometry">
        <Array as="points" />
      </mxGeometry>
    </mxCell>
    <mxCell id="label296" parent="edge49" vertex="1" connectable="0" value="«create»" style="edgeLabel;resizable=0;html=1;align=left;verticalAlign=top;strokeColor=default;">
      <mxGeometry x="6801" y="1331" as="geometry" />
    </mxCell>
    <mxCell id="edge72" edge="1" value="" parent="1" source="node32" target="node20" style="html=1;rounded=1;edgeStyle=orthogonalEdgeStyle;dashed=1;startArrow=none;endArrow=openThin;endSize=12;strokeColor=#595959;exitX=0.250;exitY=0.000;exitDx=0;exitDy=0;entryX=0.500;entryY=1.001;entryDx=0;entryDy=0;">
      <mxGeometry width="50" height="50" relative="1" as="geometry">
        <Array as="points">
          <mxPoint x="3495" y="1835" />
          <mxPoint x="3489" y="1835" />
        </Array>
      </mxGeometry>
    </mxCell>
    <mxCell id="label434" parent="edge72" vertex="1" connectable="0" value="«create»" style="edgeLabel;resizable=0;html=1;align=left;verticalAlign=top;strokeColor=default;">
      <mxGeometry x="3447" y="1839" as="geometry" />
    </mxCell>
    <mxCell id="edge2" edge="1" value="" parent="1" source="node32" target="node17" style="html=1;rounded=1;edgeStyle=orthogonalEdgeStyle;dashed=1;startArrow=none;endArrow=openThin;endSize=12;strokeColor=#595959;exitX=0.250;exitY=0.000;exitDx=0;exitDy=0;entryX=0.500;entryY=1.001;entryDx=0;entryDy=0;">
      <mxGeometry width="50" height="50" relative="1" as="geometry">
        <Array as="points">
          <mxPoint x="3495" y="1835" />
          <mxPoint x="3489" y="1835" />
          <mxPoint x="3489" y="1395" />
          <mxPoint x="3349" y="1395" />
          <mxPoint x="3349" y="975" />
          <mxPoint x="3309" y="975" />
        </Array>
      </mxGeometry>
    </mxCell>
    <mxCell id="label14" parent="edge2" vertex="1" connectable="0" value="«create»" style="edgeLabel;resizable=0;html=1;align=left;verticalAlign=top;strokeColor=default;">
      <mxGeometry x="3395" y="1376" as="geometry" />
    </mxCell>
    <mxCell id="edge42" edge="1" value="" parent="1" source="node32" target="node40" style="html=1;rounded=1;edgeStyle=orthogonalEdgeStyle;dashed=1;startArrow=none;endArrow=openThin;endSize=12;strokeColor=#595959;exitX=0.250;exitY=0.000;exitDx=0;exitDy=0;entryX=0.500;entryY=1.001;entryDx=0;entryDy=0;">
      <mxGeometry width="50" height="50" relative="1" as="geometry">
        <Array as="points">
          <mxPoint x="3495" y="1835" />
          <mxPoint x="3489" y="1835" />
          <mxPoint x="3489" y="1375" />
          <mxPoint x="3689" y="1375" />
        </Array>
      </mxGeometry>
    </mxCell>
    <mxCell id="label254" parent="edge42" vertex="1" connectable="0" value="«create»" style="edgeLabel;resizable=0;html=1;align=left;verticalAlign=top;strokeColor=default;">
      <mxGeometry x="3441" y="1596" as="geometry" />
    </mxCell>
    <mxCell id="edge64" edge="1" value="" parent="1" source="node32" target="node13" style="html=1;rounded=1;edgeStyle=orthogonalEdgeStyle;dashed=1;startArrow=none;endArrow=openThin;endSize=12;strokeColor=#595959;exitX=0.250;exitY=0.000;exitDx=0;exitDy=0;entryX=0.250;entryY=1.000;entryDx=0;entryDy=0;">
      <mxGeometry width="50" height="50" relative="1" as="geometry">
        <Array as="points">
          <mxPoint x="3495" y="1835" />
          <mxPoint x="3489" y="1835" />
          <mxPoint x="3489" y="1375" />
          <mxPoint x="4014" y="1375" />
        </Array>
      </mxGeometry>
    </mxCell>
    <mxCell id="label386" parent="edge64" vertex="1" connectable="0" value="«create»" style="edgeLabel;resizable=0;html=1;align=left;verticalAlign=top;strokeColor=default;">
      <mxGeometry x="3441" y="1481" as="geometry" />
    </mxCell>
    <mxCell id="edge97" edge="1" value="" parent="1" source="node32" target="node6" style="html=1;rounded=1;edgeStyle=orthogonalEdgeStyle;dashed=0;startArrow=diamondThinstartSize=12;endArrow=openThin;endSize=12;strokeColor=#595959;exitX=0.750;exitY=0.000;exitDx=0;exitDy=0;entryX=0.500;entryY=1.000;entryDx=0;entryDy=0;">
      <mxGeometry width="50" height="50" relative="1" as="geometry">
        <Array as="points">
          <mxPoint x="3723" y="1455" />
          <mxPoint x="6029" y="1455" />
        </Array>
      </mxGeometry>
    </mxCell>
    <mxCell id="label582" parent="edge97" vertex="1" connectable="0" value="1" style="edgeLabel;resizable=0;html=1;align=left;verticalAlign=top;strokeColor=default;">
      <mxGeometry x="3712" y="1752" as="geometry" />
    </mxCell>
    <mxCell id="label586" parent="edge97" vertex="1" connectable="0" value="1" style="edgeLabel;resizable=0;html=1;align=left;verticalAlign=top;strokeColor=default;">
      <mxGeometry x="6018" y="978" as="geometry" />
    </mxCell>
    <mxCell id="label587" parent="edge97" vertex="1" connectable="0" value="userRepository" style="edgeLabel;resizable=0;html=1;align=left;verticalAlign=top;strokeColor=default;">
      <mxGeometry x="6029" y="978" as="geometry" />
    </mxCell>
  </root>
</mxGraphModel>